<?xml version="1.0"?>
<svg xmlns="http://www.w3.org/2000/svg" height="512px" viewBox="0 0 501.92 501" width="512px"><path d="m46.5 343.601562h27.199219c4.417969 0 8-3.582031 8-8 0-4.417968-3.582031-8-8-8h-27.199219c-4.417969 0-8 3.582032-8 8 0 4.417969 3.582031 8 8 8zm0 0" fill="#c8b544"/><path d="m73.699219 375.601562h-27.199219c-4.417969 0-8 3.582032-8 8 0 4.417969 3.582031 8 8 8h27.199219c4.417969 0 8-3.582031 8-8 0-4.417968-3.582031-8-8-8zm0 0" fill="#c8b544"/><path d="m73.699219 424.601562h-27.199219c-4.417969 0-8 3.582032-8 8 0 4.417969 3.582031 8 8 8h27.199219c4.417969 0 8-3.582031 8-8 0-4.417968-3.582031-8-8-8zm0 0" fill="#c8b544"/><path d="m157 232.003906c4.417969 0 8-3.582031 8-8v-31.085937c0-4.417969-3.582031-8-8-8s-8 3.582031-8 8v31.085937c0 4.417969 3.582031 8 8 8zm0 0" fill="#c8b544"/><path d="m206 232.003906c4.417969 0 8-3.582031 8-8v-31.085937c0-4.417969-3.582031-8-8-8s-8 3.582031-8 8v31.085937c0 4.417969 3.582031 8 8 8zm0 0" fill="#c8b544"/><path d="m157 329.144531c4.417969 0 8-3.582031 8-8v-31.085937c0-4.417969-3.582031-8-8-8s-8 3.582031-8 8v31.085937c0 4.417969 3.582031 8 8 8zm0 0" fill="#c8b544"/><path d="m206 329.144531c4.417969 0 8-3.582031 8-8v-31.085937c0-4.417969-3.582031-8-8-8s-8 3.582031-8 8v31.085937c0 4.417969 3.582031 8 8 8zm0 0" fill="#c8b544"/><path d="m254 329.144531c4.417969 0 8-3.582031 8-8v-31.085937c0-4.417969-3.582031-8-8-8s-8 3.582031-8 8v31.085937c0 4.417969 3.582031 8 8 8zm0 0" fill="#c8b544"/><path d="m157 426.289062c4.417969 0 8-3.582031 8-8v-31.085937c0-4.417969-3.582031-8-8-8s-8 3.582031-8 8v31.085937c0 4.417969 3.582031 8 8 8zm0 0" fill="#c8b544"/><path d="m206 426.289062c4.417969 0 8-3.582031 8-8v-31.085937c0-4.417969-3.582031-8-8-8s-8 3.582031-8 8v31.085937c0 4.417969 3.582031 8 8 8zm0 0" fill="#c8b544"/><path d="m254 426.289062c4.417969 0 8-3.582031 8-8v-31.085937c0-4.417969-3.582031-8-8-8s-8 3.582031-8 8v31.085937c0 4.417969 3.582031 8 8 8zm0 0" fill="#c8b544"/><path d="m368.761719 46.53125c-50.089844.054688-90.679688 40.644531-90.734375 90.730469 0 4.019531 2.980468 7.414062 6.96875 7.933593 3.984375.515626 7.734375-2 8.765625-5.886718.847656-3.183594 2.597656-7.484375 3.933593-9.054688 2.445313-2.292968 5.664063-3.582031 9.015626-3.605468 3.335937-.027344 6.550781 1.246093 8.96875 3.546874 2.355468 2.460938 3.683593 5.726563 3.714843 9.132813 0 4.421875 3.582031 8 8 8s8-3.578125 8-8c-.074219-3.382813 1.242188-6.652344 3.632813-9.046875 2.394531-2.390625 5.664062-3.707031 9.046875-3.632812 3.375-.027344 6.628906 1.242187 9.089843 3.546874 2.398438 2.445313 3.769532 5.710938 3.835938 9.132813v62.085937c.003906.949219-.378906 1.855469-1.058594 2.515626-.683594.660156-1.605468 1.011718-2.550781.972656-.941406.035156-1.855469-.316406-2.527344-.980469-.671875-.660156-1.042969-1.566406-1.023437-2.507813-.050782-4.394531-3.628906-7.933593-8.023438-7.933593-4.398437 0-7.972656 3.539062-8.023437 7.933593 0 10.828126 8.777343 19.601563 19.605469 19.601563 10.824218 0 19.601562-8.773437 19.601562-19.601563v-62.085937c-.125-3.367187 1.144531-6.636719 3.511719-9.039063 2.367187-2.402343 5.617187-3.71875 8.988281-3.640624 3.328125-.027344 6.535156 1.246093 8.9375 3.546874 2.351562 2.460938 3.675781 5.730469 3.699219 9.132813 0 4.417969 3.578125 7.996094 7.996093 7.996094 4.414063 0 7.992188-3.578125 7.992188-7.996094-.074219-3.382813 1.238281-6.652344 3.632812-9.046875 2.394532-2.394531 5.664063-3.707031 9.046876-3.632812 3.328124-.027344 6.539062 1.238281 8.953124 3.53125 1.339844 1.507812 3.132813 5.898437 4 9.117187 1.019532 3.890625 4.773438 6.417969 8.761719 5.902344 3.988281-.519531 6.972657-3.914063 6.972657-7.9375-.054688-50.085938-40.644532-90.675781-90.730469-90.730469zm62.046875 64.117188c-7.523438.035156-14.75 2.949218-20.191406 8.148437-.117188.109375-.230469.222656-.34375.34375l-.148438.160156-.148438-.160156c-.054687-.0625-.113281-.117187-.167968-.175781-5.429688-5.34375-12.75-8.332032-20.367188-8.316406-7.523437.035156-14.75 2.949218-20.1875 8.148437-.121094.109375-.234375.222656-.34375.34375l-.148437.160156-.152344-.160156c-.054687-.058594-.113281-.117187-.167969-.175781-5.429687-5.34375-12.746094-8.332032-20.367187-8.316406-7.523438.035156-14.746094 2.949218-20.1875 8.148437-.117188.109375-.234375.222656-.34375.34375l-.148438.160156-.152343-.160156c-.054688-.0625-.109376-.117187-.167969-.175781-7.527344-7.402344-18.484375-10.125-28.597657-7.109375 10.699219-29.597657 38.796876-49.320313 70.269532-49.324219 31.476562-.007812 59.578125 19.703125 70.292968 49.296875-2.675781-.78125-5.445312-1.179687-8.230468-1.179687zm0 0" fill="#c8b544"/><path d="m368.761719.460938c-67.339844.007812-124.074219 50.289062-132.171875 117.140624h-19.589844v-71.3125c0-4.417968-3.582031-8-8-8s-8 3.582032-8 8v71.3125h-70.871094c-15.539062.144532-28.074218 12.75-28.128906 28.289063v134.710937h-73.871094c-15.441406 0-28.128906 12.078126-28.128906 27.515626v184.484374c.0585938 4.445313 3.683594 8.011719 8.128906 8h401.683594c4.457031.015626 8.097656-3.542968 8.1875-8v-210.710937c-.035156-8.078125-3.550781-15.746094-9.648438-21.042969 55.628907-17.402344 93.519532-68.910156 93.570313-127.199218 0-73.402344-59.761719-133.1875-133.160156-133.1875zm-238.632813 133.140624h105.519532c-.109376 18.964844 3.890624 37.730469 11.722656 55-.832032 1.289063-1.304688 2.777344-1.371094 4.3125v31.089844c0 4.417969 3.582031 8 8 8s8-3.582031 8-8v-10.355468c9 10.898437 18 20.507812 30 28.445312v242.507812h-174v-338.710937c.042969-6.707031 5.421875-12.15625 12.128906-12.289063zm-114.128906 174.515626c0-6.613282 5.511719-11.515626 12.128906-11.515626h73.871094v188h-86zm386 176.484374h-94v-47h51.382812c4.417969 0 8-3.582031 8-8 0-4.417968-3.582031-8-8-8h-51.382812v-33h51.382812c4.417969 0 8-3.582031 8-8 0-4.417968-3.582031-8-8-8h-51.382812v-32h51.382812c4.417969 0 8-3.582031 8-8 0-4.417968-3.582031-8-8-8h-51.382812v-72.699218c12 6.582031 26.28125 11.050781 40.898438 13.273437 1.242187 2.742188 3.992187 4.480469 7 4.429688h33.914062c6.714844.128906 12.113281 5.570312 12.1875 12.285156zm-33.238281-233.769531c-64.683594 0-117.117188-52.433593-117.117188-117.113281s52.433594-117.117188 117.113281-117.117188c64.679688 0 117.113282 52.433594 117.113282 117.117188-.070313 64.648438-52.460938 117.039062-117.109375 117.113281zm0 0" fill="#c8b544"/></svg>
