<svg width="1029" height="1406" fill="none" xmlns="http://www.w3.org/2000/svg"><path d="M207.458 1185.23c64.956 3.19 266.167 14.76 387.949 35.12 225.801 37.78 412.163-8.52 292.094-70.97-33.541-17.45 66.944-113.39-172.369-142.63-210.024-25.665-425.742 10.04-530.068 25.02-104.361 14.98-153.095 45.53-175.695 59.29-19.892 12.09-28.946 82.96 198.089 94.17" fill="url(#paint0_linear)"/><path d="M393.707 104.661s.062 1.012.187 2.652c.372 4.919 1.118 15.465 1.459 21.12v.6c0 2.68-.807 7.785-1.646 13.947-.838 6.158-1.677 13.412-1.677 20.546 0 7.506.932 14.894 3.82 20.72l1.211-.6c-2.764-5.518-3.695-12.72-3.695-20.12 0-7.025.807-14.227 1.646-20.373.838-6.145 1.677-11.213 1.677-14.12v-.68c-.466-7.559-1.646-23.785-1.646-23.801l-1.336.109" fill="#B02403"/><path d="M416.021 105.341c6.375-1.653 12.75-3.931 11.656-8.293-1.062-4.185-9.312-5.013-13.281-4.038-1.656.4-3.781 1.294-6 2.384 3.625-4.146 7.406-9.225 9.906-14.653 2.25-4.893 2.532-8.093.907-10.065-.5-.6-1.938-1.947-4.719-1.269-4.094.988-10.438 6.616-13.625 13.963-.375.918-.812 1.934-1.187 3 .281-5.082.281-10.082-.126-13.816-.343-3.412-1.312-5.637-2.968-6.772a3.99 3.99 0 0 0-3.344-.64c-3.812.922-6.469 6.893-6.187 13.88.093 2.172.312 4.56.625 6.988-6.938-15.51-10.438-14.681-11.782-14.362a3.485 3.485 0 0 0-1.281.615c-1.218.878-2.687 2.707-2.687 6.266-.032 5.706 3.843 14.653 12.25 23.118-5.532-2.012-12.469-3.878-17.031-2.771-1.719.412-3.063 1.228-4.031 2.412-2.032 2.547-2.626 4.934-1.751 7.106 1.157 2.935 4.719 4.722 11.188 5.6 2.218.31 5.375-.053 9.687-1.091l.063-.015c-4.657 3.987-8.5 8.494-7.438 11.934 1.188 3.853 5.281 5.759 9.938 4.613a11.785 11.785 0 0 0 6.75-4.478c.718-.975 1.249-2.135 1.687-3.363.187.787.375 1.563.625 2.309.75 2.625 2.812 9.6 7.187 8.531 3.469-.84 4.25-6.265 4.407-9.412.062-1.281-.157-2.547-.5-3.775 1.906 1.269 4.156 2.641 6.937 4.163 1.813.971 3.688 1.278 5.438.853a6.05 6.05 0 0 0 3.812-2.853c1-1.71 1.188-3.894.563-6.135-.907-3.228-7.219-5.959-14.125-8.04 1.812-.331 3.843-.76 6.156-1.319.719-.175 1.5-.375 2.281-.575" fill="#F16C81"/><path d="M399.691 104.608a5.337 5.337 0 0 1-5.344 5.335c-2.921 0-5.313-2.386-5.313-5.335 0-2.946 2.392-5.332 5.313-5.332a5.337 5.337 0 0 1 5.344 5.332z" fill="#fff"/><path d="M485.225 65.009c8.264 5.08 31.361 20.252 46.93 43.118 15.537 22.87 23.481 34.056 8.201 57.242-15.313 23.187 16.337 74.894-3.3 59.453-22.872-18-25.532 2.694-42.798-2.508-30.401-9.146-39.851-37.612-28.574-64.854 11.308-27.226 12.653-28.559 5.573-45.572-7.111-17.026 5.863-51.854 13.968-46.88z" fill="#73507A"/><path d="M569.122 188.047s-7.515-3.414-13.906-24.198c-6.358-20.787-9.537-31.668-7-40.229 2.505-8.559-42.744 1.04-39.918 16.747 2.826 15.694.706 18.466 9.409 33.588 8.671 15.132 3.854 21.359-3.918 21.812-7.803.453 55.879-1.227 55.333-7.72" fill="#E9D6B8"/><path d="M526.241 131.17s6.997 35.838-12.668 46.493c-10.173 5.492-17.786 8.025-17.786 8.025l80.119 75.868 39.945-79.241s-55.496-1.921-57.051-25.36c-2.981-44.388-23.261-84.548-32.559-25.785M305.476 207.409l100.863 93.708s7.696 27.171 2.742 32.985c-4.923 5.802-15.175 8.893-18.727 10.479-3.552 1.573-93.477-68.012-116.566-94.067-23.058-26.052 31.688-43.105 31.688-43.105z" fill="#E9D6B8"/><path d="M296.562 1049.42l1.398 31.41h25.542s1.429-3.92 3.604-3.92c1.802 0 4.164 3.92 6.65 3.92h65.003s1.15-5.81-.248-7.82c-.746-1.03-5.003-2.82-7.861-3.7-13.206-4.1-50.991-16.89-57.547-30.81-7.985-16.93-36.541 10.92-36.541 10.92" fill="#E09A3F"/><path d="M399.002 1074.23c.559 2.51-.248 6.6-.248 6.6h-65c-2.485 0-4.816-3.92-6.649-3.92-2.175 0-3.573 3.92-3.573 3.92h-25.571l-1.149-6.6h102.19zM351.666 1061.94c.555.82 2.035-.11 3.947-1.73 4.655-3.94 4.223-3.51 3.021-4.17-.832-.45-1.819-.9-4.501 1.47-1.912 1.67-3.052 3.6-2.467 4.43M344.736 1058.59c.554.83 2.031-.1 3.94-1.73 4.68-3.93 4.249-3.51 3.048-4.16-.862-.44-1.847-.91-4.525 1.45-1.909 1.68-3.018 3.63-2.463 4.44M338.38 1054.78c.553.81 2.029-.11 3.966-1.73 4.643-3.94 4.243-3.51 3.013-4.16-.83-.46-1.814-.91-4.52 1.46-1.875 1.66-3.013 3.6-2.459 4.43" fill="#E0C29B"/><path d="M46.255 1091.59c-2.032 3.52-.618 11.75-.618 11.75s42.25 5.19 55.824 1.68c3.563-.93 9.51-4.29 15.134-7.85.942-.6 2.621-4.18 3.533-4.78 1.708-1.12 2.621.75 4.063-.25 3.769-2.61 6.419-4.67 6.449-4.93 3.71-21.4-1.237-30.03-1.237-30.03s-27.058-13.2-33.8-3.99c-15.87 21.67-43.371 28.23-49.348 38.4" fill="#E09A3F"/><path d="M45.045 1096.17c13.036 1.85 40.404 5.54 45.437 4.53 20.629-4.13 32.959-16.09 41.346-23.47-.177 2.96-.559 6.27-1.207 9.98-.029.26-2.678 2.32-6.444 4.93-1.442 1-2.355-.87-4.061.25-.913.6-2.59 4.18-3.532 4.78-5.62 3.56-11.594 6.92-15.126 7.85-13.596 3.51-55.854-1.68-55.854-1.68s-.736-3.71-.56-7.17M68.005 1075.87c-.175.93 1.576 1.43 3.94 1.28 4.785-.26 9.657 0 14.56.8 2.392.39 4.434.04 4.551-.94.088-.99-1.78-2.23-4.172-2.59-4.815-.73-9.63-.95-14.327-.64-2.334.16-4.347 1.17-4.552 2.09M76.163 1069.51c-.147.95 1.636 1.65 3.974 1.74 4.735.18 9.557.9 14.35 2.13 2.368.61 4.355.43 4.443-.59.058-1.01-1.783-2.46-4.12-3.04-4.765-1.17-9.5-1.82-14.205-1.96-2.309-.07-4.296.79-4.442 1.72zM84.05 1063.69c-.147.97 1.668 1.86 3.98 2.18 4.713.63 9.426 1.76 14.139 3.42 2.312.82 4.274.78 4.332-.27.03-1.05-1.785-2.68-4.098-3.47a69.826 69.826 0 0 0-13.992-3.24c-2.313-.28-4.245.43-4.362 1.38" fill="#E0C29B"/><path d="M197.568 442.674l64.057 271.415 83.667 332.801-53.175 20.96-88.463-312.588L107.6 447.248l89.968-4.574" fill="#163F59"/><path d="M133.54 451.057l-86.915 18.296 22.877 329.374L86.46 1057.77s18.108 3.98 31.475 10.23c4.475 2.09 16.37 8.62 16.37 8.62l-6.86-296.201 6.094-329.362" fill="#163F59"/><path d="M192.64 149.137s32.019-10.293 49.149-32.013c17.16-21.731 4.574-45.747 16.024-66.334 11.451-20.587 72.051-29.732 76.625-12.586 4.574 17.16-3.438 29.735-2.303 44.602 1.167 14.865 4.575 10.294 4.575 10.294l-9.149 8.012-11.42 37.732s-23.3 1.866-33.154-8c-4.575-4.574-14.889 22.867-14.889 36.602 0 13.719 10.314 19.439 10.314 19.439s-32.049 74.334-85.772-37.748" fill="#E9D6B8"/><path d="M273.82 174.297l52.608 48.028-46.882 44.613-33.163-12.586 27.437-80.055" fill="#D07702"/><path d="M145.708 149.143l59.477-5.72s16.028 51.465 37.752 52.611c21.725 1.136 30.875-18.304 30.875-21.731 0-3.427-14.877 84.625-14.877 84.625l-64.021 86.922s-1.152 60.613 5.726 93.772c6.848 33.159-156.706 38.879-156.706 38.879s2.303-150.958 51.478-234.438c49.175-83.482 50.296-94.92 50.296-94.92" fill="#E09A3F"/><path d="M148.019 153.71s2.304-11.427-21.713-1.134c-24.017 10.28-54.917 49.174-54.917 49.174l35.479 51.452s25.14-17.146 41.151-99.492z" fill="#D07702"/><path d="M260.853 104.169s-15.507 7.96-16.03.76c-1.323-19.252-8.769-42.548-4.739-61 5.693-26.292 33.723-33.16 33.723-33.16l21.723 2.28s9.446-4.067 13.723-8c13.723-12.572 11.446 2.293 25.169 2.293s5.723 4.575 5.723 9.148c0 4.572 3.415 4.572 6.861-1.148 3.416-5.72 2.277 13.72 2.277 13.72l-14.861 16.015s1.138-14.868-14.862-14.868c-16.03 0-36.615 10.293-36.615 10.293s-8 12-3.415 21.16c1.477 2.975 2.585 11.467 2.277 13.147l-6.861 1.148s-1.908-9.148-6.862-9.148c-9.754 0-7.231 6.852-7.231 16v21.36" fill="#194866"/><path d="M385.87 204.794s-18.3-28.2-9.899-32.014c8.4-3.813 16.77-.758 20.58-5.33 3.81-4.588 9.9-12.202 10.681-7.63.749 4.575.749 6.855 9.15 1.521 8.401-5.331 7.62 4.575 8.401 7.626.749 3.055-8.401 8.389-11.461 8.389-3.03 0 1.53 22.107 1.53 22.107l9.15 1.53-.749 9.148-24.422 2.279-12.961-7.626" fill="#E9D6B8"/><path d="M396.566 174.301s15.231 134.947 12.957 151.722c-2.305 16.771-16.787 18.291-28.965 1.52-12.209-16.763-15.262-40.402-15.262-42.695 0-2.28 16.788-98.345 18.314-104.44 1.495-6.107 12.956-6.107 12.956-6.107z" fill="#E9D6B8"/><path d="M311.104 110.261c3.845 7.507 11.044 12.573 19.289 12.573 8.245 0 15.444-5.066 19.289-12.573h-38.578" fill="#fff"/><path d="M202.131 233.008s32.009-3.053 34.295 4.573c2.287 7.626 0 67.853 0 67.853l-9.927 7.627s-16.757-41.176-13.718-53.375l-22.864.761s8.393-27.439 12.214-27.439z" fill="#E2C59C"/><path d="M157.147 229.953l49.553-3.813s-2.302 21.348-1.524 30.505c.747 9.149-25.943 15.243-51.078 14.481-25.165-.759 3.049-41.173 3.049-41.173M221.943 309.246s.756 14.492 1.542 16.771c.756 2.294 27.443-22.879 32.793-28.211 5.319-5.334 1.511-6.855-4.594-5.334-6.105 1.532-14.478 0-14.478-3.053 0-3.041-3.052 6.867-3.052 6.867s8.372 1.52-12.211 12.96" fill="#E2A4A7"/><path d="M168.578 152.952s7.622-3.811 18.286-3.052c10.695.759 25.156-1.521 31.271-3.814 6.086-2.28 11.418-8.387 11.418-8.387s.783 3.055-.753 6.107c-1.507 3.04 9.911 3.04 9.911 3.04s6.869 3.054 3.043 4.588c-3.796 1.518-10.665 5.332-10.665 5.332s.783 3.055 3.796 3.055c3.073 0-3.013 2.28-6.839 2.28-3.826 0-7.621-2.28-13.737-.762-6.085 1.521-32.023 8.387-32.023 8.387s-31.241-11.439-13.708-16.774zM175.424 53.835s-3.807 30.508 1.546 30.508c5.323 0-.773 7.613-1.546 9.906-.744 2.28-16.772 21.345-19.806 24.399-3.063 3.054-26.704-.761-26.704-.761l-.743 19.814-16.029 6.866 1.517-45.745s-6.096-48.026 19.835-51.841c25.931-3.812 41.93 6.854 41.93 6.854" fill="#E2C59C"/><path d="M159.762 104.552c-1.513 6.532-1.216 11.492 1.128 12.492 2.314 1.012 6.111-2.213 9.819-7.814l-10.947-4.678" fill="#fff"/><path d="M146.457 34.778s20.604 6.092 28.237 4.571c7.603-1.518 20.574 9.908.746 25.163-19.799 15.251-30.503 12.958-30.503 12.958s9.929-10.665 6.112-19.825c-3.816-9.148-9.929-12.962-4.592-22.867" fill="#B02403"/><path d="M149.515 42.405s-1.508-15.254-37.363-9.148c-35.826 6.095-47.245 50.322-23.608 66.32 23.607 16.014 27.424 13.733 31.24 5.346l3.816-8.399s-6.863-13.72-.769-16.001c6.094-2.293 7.633 2.28 7.633 2.28l3.816 3.053s8.372-18.29 9.141-20.586c.769-2.278 7.633-5.331 10.68-12.2 3.047-6.852-4.586-10.665-4.586-10.665" fill="#B02403"/><path d="M84.723 90.432s-1.486 12.388-17.547 12.959c-21.336.761-29.73 14.495-28.973 32.028 0 0 12.184-13.72 32.034-16.014 15.973-1.839 15.244-20.587 14.486-28.973M103.758 104.157s-1.526 12.973-9.157 12.201c-7.63-.76-22.863 6.104-26.679 19.825-3.815 13.721-3.815 27.454-3.815 27.454s7.63-16.013 24.419-19.066c30.523-5.561 20.574-32.789 15.232-40.414z" fill="#B02403"/><path d="M131.974 250.539s-27.435-4.574-36.6-12.2c-9.135-7.627-8.391-89.201-6.844-93.774 1.518-4.574 35.827-13.721 50.318-12.2 14.492 1.535 12.974.761 21.336 6.867 4.909 3.574 9.581 6.094 12.586 7.573 2.113 1.054 3.452 1.574 3.452 1.574l-6.13 24.4-15.235-6.106 8.391 60.239s22.109 32.012-31.274 23.627" fill="#8A5FB0"/><path d="M74.038 204.791s19.073 8.387 21.35 33.549c.149 1.706 19.822.772 54.137 9.92 31.889 8.492 63.27 11.426 63.27 11.426l3.054 21.347c-8.085-2.267-19.074-.761-32.039-7.615-6.857-3.638-78.512 16.002-102.916 13.72-24.403-2.293-28.206-10.678-28.955-24.401-.778-13.717 1.498-31.251 22.099-57.946" fill="#E9D6B8"/><path d="M500.041 182.726l-13.534 5.919s26.207 46.921 24.52 69.747c-1.688 22.828 26.207 83.693 26.207 83.693s-23.693 26.2-36.366 137.788c-12.673 111.598-49.006 567.557-58.304 584.477-9.298 16.91 2.515 32.12 62.539 32.12 60.025 0 55.79-19.44 94.703-18.6 38.88.84 54.102 26.22 99.732 9.3 45.664-16.9 27.928-24.51 11.846-42.27-16.048-17.75-36.365-351.135-38.053-400.174-1.687-49.029 6.784-179.213-5.062-233.321-11.847-54.105-34.645-74.399-34.645-74.399s-4.269-56.64-.034-81.146c4.236-24.523-10.125-61.507-23.46-79.895-1.555-2.174-20.251-1.906-20.251-1.906s9.497 56.441-19.655 67.427c-21.442 8.067-46.524-49.456-70.183-58.76" fill="url(#paint1_linear)"/><path d="M518.234 111.807c6.866 5.068 14.595 8.041 22.355 9.015-18.682 32.932-52.438 25.731-53.588 25.424-1.214-.332-2.395-.651-3.385-2.717-.958-2.067-1.118-4.216-.735-5.228.351-1.013 1.469-1.999 1.15-2.213-.319-.214-2.491-1.667-3.034-2.028-.543-.374-.607-2.146-.607-2.146l1.725-1.667c-2.81-1.878-3.034-3.453-3.098-4.28-.096-.84 1.118-1.999 2.14-2.973.83-.84.894-3.494.606-4.468-.287-.971-3.161-2.57-3.64-3.519-.479-.945-.799-2.746-.415-3.107.383-.371 1.884-1.294 4.79-3.133 2.906-1.84 6.834-6.774 7.281-15.907.448-9.147 2.619-8.546 4.599-12.586 5.046-10.331 8.303 20.039 23.856 31.533" fill="#E9D6B8"/><path d="M484.597 61.832c1.171-4.453 47.464-14.333 71.668-.972 24.236 13.358 36.273 39.344 33.118 66.944-3.189 27.588 48.44 59.401 23.943 54.508-28.53-5.719-21.568 13.947-39.331 17.105-31.263 5.589-52.539-15.53-54.784-44.917-2.245-29.402-1.627-31.201-15.648-43.173-14.021-11.975-21.341-40.281-18.966-49.495z" fill="#452647"/><path d="M575.561 180.91l-22.12.375s-33.003-11.974-38.428-11.974c-1.098 0 1.808-4.347-3.294-4.347-5.038 0-9.397 10.147-10.495 12.333-1.066 2.173 2.551 2.535 5.812 3.613 3.262 1.095 40.237 30.094 43.143 31.188 2.874 1.079 15.21.72 31.873-5.441 16.695-6.171-6.491-25.747-6.491-25.747M582.054 302.727l-29.716.718s.741 11.239-5.795 26.093c-6.535 14.868-8.692 16.32-9.786 21.76-1.095 5.428.837 11.175-16.677 4.347-29.715-11.6-17.417-13.412-21.377-13.773-3.992-.373 17.643.947 20.669-.734 3.251-1.812 10.141-30.44 11.944-46.759 1.803-16.319 26.463-19.574 43.14-25.733 8.274-3.068 7.598 34.081 7.598 34.081" fill="#E2C59C"/><path d="M635.374 281.326s10.491 12.694-27.206 26.108c-37.697 13.41-36.98 5.799-36.98 5.799l-10.882-41.694s29.356-17.761 40.597-10.866c10.817 6.627 33.363 17.385 34.471 20.653" fill="#163F59"/><path d="M619.755 102.259s-22.031-12.174-35.87 10.333c-7.278 11.773-10.476 13.375-12.696 15.761-2.35 2.546.294 7.451.294 7.451s-.425 8.803 2.056 15.934c2.709 7.788 12.762 13.094 22.292 13.6 6.887.359 6.005 4.348 7.605 13.043 1.632 8.704 10.346 11.423 16.319 3.812 5.972-7.615 5.45-19.028 11.423-26.653 6.005-7.601 23.924-47.296-11.423-53.281" fill="#E2C59C"/><path d="M640.413 94.1c-21.171-9.853-37.237-.134-36.419-1.08 5.53-6.44-20.123 2.172-7.624 5.975 12.5 3.812 14.136-.55 10.34 7.078-3.796 7.601 6.119 32.001 14.692 26.095 7.068-4.895 12.5-2.723 13.023 3.812.556 6.521-7.591 12.493-8.147 16.855-.524 4.345-1.637 16.851 8.147 13.586 9.784-3.253 34.26-23.92 31.544-43.494-2.716-19.587-6.512 1.08-8.704-7.068-2.16-8.16-4.483-16-16.852-21.76z" fill="#163F59"/><path d="M570.448 179.473s32.635-6.158 35.183-6.534c2.516-.359 13.754 1.813 17.739-1.078 3.986-2.907 1.47 3.254 1.47 3.254s8.33 26.464 11.238 31.185c2.907 4.707 23.913 30.813 18.849 53.641-5.096 22.838-19.96 36.611-19.96 36.611s-23.651-34.811-46.388-37.333c-1.993-.225 3.495-3.691 8.134-6.187 1.307-.706-5.26-.624 1.111-11.666 1.633-2.813-14.701-31.081-14.701-31.081l-10.127 1.441s-4.704-20.653-2.548-32.253z" fill="#00B7C4"/><path d="M488.632 188.217s-18.179 6.774-19.029 23.253c-.719 13.748 35.573 84.482 45.251 101.029 6.539 11.198 14.778 8.664 38.025-5.081 14.353-8.481 52.411-27.892 52.411-27.892s5.068-4.228 18.603 0c13.536 4.224 16.904 0 16.904 0l4.218-4.228 2.55-5.921 16.904-3.371s-.85-3.387-16.054-3.387c-5.068 0-12.065-5.281-11.411-7.187 0 0 10.757-5.068 5.493-7.615 0 0-4.642 2.227-9.939 4.44-5.297 2.214-20.598 9.227-23.051 9.933-63.396 18.388-76.082 23.041-78.6 24.735 0 0-28.772-89.4-42.275-98.708" fill="#E9D6B8"/><path d="M467.999 829.235s-4.566-10.055-9.825-11.214c-5.29-1.162-11.305 2.548-11.305 2.548s-4.157-11.267-6.896-4.361c-2.771 6.905-2.709 14.173 4.597 14.907 7.274.734 22.012 15.119 23.429-1.88" fill="#6E3A2E"/><path d="M496.627 826.074s-36.605-2.292-46.909 6.294c-10.304 8.574 2.003 23.944 13.166 33.158 13.134 10.867 56.036-23.439 33.743-39.452z" fill="#6E3A2E"/><path d="M479.503 832.685s-12.532-.652-23.639.493c-6.425 7.108-.665 18.599 6.645 27.4 13.64-3.573 30.919-19.425 16.994-27.893z" fill="#AD5C49"/><path d="M549.217 841.514c0 4.107-3.583 7.427-7.998 7.427-4.414 0-8.029-3.32-8.029-7.427 0-4.108 3.615-7.441 8.029-7.441 4.415 0 7.998 3.333 7.998 7.441z" fill="#854638"/><path d="M546.369 843.673c0 3.225-2.813 5.841-6.298 5.841s-6.299-2.616-6.299-5.841c0-3.226 2.814-5.842 6.299-5.842 3.485 0 6.298 2.616 6.298 5.842z" fill="#AD5C49"/><path d="M542.948 817.964c-2.813 4.134-7.737 5.694-10.997 3.482-3.261-2.228-3.644-7.375-.831-11.509 2.813-4.133 7.736-5.693 10.996-3.465 3.293 2.212 3.645 7.359.832 11.492" fill="#854638"/><path d="M541.962 815.62c-1.789 2.656-5.208 3.493-7.637 1.854-2.397-1.64-2.908-5.12-1.087-7.785 1.79-2.668 5.241-3.496 7.638-1.853 2.428 1.639 2.908 5.119 1.086 7.784z" fill="#AD5C49"/><path d="M536.637 822.646s-.576-10.295-17.718-14.292c-17.142-4.014-28.016 13.147-25.17 22.291 2.879 9.147 7.452 28.588 18.326 24.587 10.842-3.997 36.011-4.573 24.562-32.586" fill="#854638"/><path d="M507.109 855.404c10.143-2.518 10.333-18.011 6.677-31.625-2.162-8.041-10.555-7.561-17.9-5.148-2.352 4.121-3.179 8.613-2.13 12.015 2.385 7.612 5.946 22.319 13.353 24.758z" fill="#AD5C49"/><path d="M516.545 823.352c.572 2.626-.477 5.081-2.321 5.469-1.844.397-3.815-1.402-4.388-4.028-.54-2.639.509-5.081 2.353-5.481 1.844-.385 3.815 1.414 4.356 4.04M469.181 859.804s-10.289-3.999-14.866-1.146c-4.577 2.866-6.282 9.735-6.282 9.735s-10.889-5.148-8.017 1.707c2.873 6.866 8.018 12.014 13.731 7.44 5.713-4.574 26.292-4.574 15.434-17.736zM486.32 827.793s-5.151-10.293-4.013-14.865c1.137-4.573-6.858-7.44-9.133-5.721-2.307 1.707-6.29 6.293-2.876 8.574 3.444 2.291 3.444 12.588 3.444 12.588l12.578-.576M486.406 845.312s2.124 11.308-.222 15.4c-2.345 4.095 4.564 9.027 7.258 8 2.663-1.027 7.765-4.333 5.071-7.467-2.662-3.132.159-13.039.159-13.039l-12.266-2.894" fill="#6E3A2E"/><path d="M548.947 1054.63l6.809 18.78s-.969 31.2 7.614 40.56c8.582 9.36 16.584 9 18.875 8.73 2.258-.26 7.098-3.13 9.55-6.88 2.453-3.73-3.162-12.29-7.066-11.25-3.904 1.02-6.614 2.49-7.001-.91-.42-3.41-5.259-.54-5.259-.54s4.355-31.61-2.259-44.06c-6.646-12.48-3.162-46.84-6.001-51.12-2.775-4.28-15.713 14.43-17.746 20.49-2.968 8.99 2.484 26.2 2.484 26.2" fill="#E2C59C"/><path d="M525.183 1117.13s21.161 1.14 26.903-1.15c5.71-2.28 5.129-7.43 12.549-4.57 7.452 2.85 13.742 13.14 21.162 13.14 7.451 0 4.58 18.88 5.161 23.46.581 4.57-3.839 3.6-9.162-1.72-7.419-7.44-18.29-8-25.161-8.58-6.839-.57-28.001.58-36.001 1.71-8 1.15-.581-20.59 4.549-22.29" fill="#E9D6B8"/><path d="M513.586 1092.54s-6.242-8.16-22.103-24.02c-16.02-16.01-22.136-31.65-33.538-39.26-11.466-7.63-16.211-13.35-26.498-8.2-22.9 11.44 6.656 87.48 50.895 98.16 44.207 10.68 32.773-21.35 31.244-26.68z" fill="#73BBBF"/><path d="M515.871 1120.74s21.361-.76 30.502-10.67c9.141-9.92 16.775-24.4-27.423-19.06-44.23 5.34-10.681 33.54-3.079 29.73z" fill="#73BBBF"/><path d="M489.76 1122.27s-6.108-6.1-13.735-17.53c-7.627-11.44-18.292-43.47-29.749-41.17-11.424 2.28-25.918 8.38 9.146 42.69 13.925 13.63 38.135 27.44 34.338 16.01z" fill="#E9D6B8"/><path d="M472.97 1115.4l-12.95-12.19s-12.949 8.38-17.54 7.62c-4.559-.76-12.949-1.52-12.949-1.52s-4.591 11.43.76 20.59c5.35 9.15 10.669 3.04 21.339 2.28 10.67-.76 22.1-3.81 28.97-1.52 6.871 2.28 15.261-2.29 9.15-8.39-6.11-6.1-16.78-6.87-16.78-6.87z" fill="#E9D6B8"/><path d="M508.253 1087.19s-25.945 24.24-28.98 31.27c-4.41 10.11-6.103 25.54 9.905 28.97 24.635 5.28 48.791-7.62 48.791-7.62s5.336-19.07-9.138-28.22c-14.507-9.14-32.048-.75-9.906-12.2 22.079-11.42-3.067-9.9-10.672-12.2zM436.581 1087.19s8.551-16.38 22.855-15.81c0 0-4.181-12.04-10.28-22.87-3.364-5.95-10.846-11.17-10.312-14.68 1.541-9.92 2.327-13.52-3.804-12.95-8.394.75-16.002 6.85-15.247 23.62.912 19.87 6.476 21.16 16.788 42.69z" fill="#7DCCD0"/><path d="M512.045 932.434s-22.861-38.879-21.716-53.747c1.145-14.88-3.434-8.013 1.145-14.88 4.546-6.852-3.466-12.572-3.466-8 0 4.575-10.27 5.72-12.559 9.147-2.29 3.441 0 8.013 2.289 11.441 2.289 3.427-9.157 20.587-2.289 44.599 6.868 24.012 13.735 49.175 25.15 61.76 11.446 12.575 17.17-36.6 11.446-50.32" fill="#E2C59C"/><path d="M561.222 995.328s13.727 42.322 13.727 54.892c0 12.59-29.736 10.29-34.3-9.15-4.565-19.44 18.291-50.316 20.573-45.742z" fill="#634F98"/><path d="M508.624 943.86s-20.611 17.16-22.89 26.306c-2.28 9.147 4.591 14.868 4.591 24.014 0 9.16-25.17 50.32-14.865 75.48 10.274 25.16 28.573 26.31 59.458 27.45 30.884 1.15 10.305-17.16 5.714-26.3-4.559-9.15-10.498-51.15 21.735-64.04 5.714-2.3-22.859-44.604-53.743-62.91" fill="#6D5199"/><path d="M549.778 915.275s9.166-21.722 27.466-20.588c18.3 1.148 20.575 10.294 13.717 18.307-6.858 7.999 28.571 6.852 35.462 19.44 6.859 12.573 3.413 17.146 0 27.44-3.445 10.295 2.275 2.292-2.308 18.307-4.583 15.998-14.854 22.869-20.575 17.146-5.721-5.721 1.138-17.146 4.583-10.294 3.413 6.868-2.308 45.747-13.749 40.027-11.409-5.72-20.575-21.72-10.271-21.72 10.271 0 13.717 30.87 1.137 30.87-12.579 0-49.179-46.882-37.737-69.762 11.441-22.867 2.275-49.173 2.275-49.173" fill="#AD5C49"/><path d="M589.827 923.285s-32.029-6.864-43.458-8.01c-11.43-1.15-41.166-5.722-42.328 21.732-1.13 27.44 17.176 72.043 42.328 65.183 25.151-6.863 41.165-14.864 42.295-30.878 1.163-16.011 0-25.158 4.585-27.451 4.585-2.282-21.729-6.854-3.422-20.576z" fill="#E9D6B8"/><path d="M540.642 957.195c-7.826-4.562-14.631-9.629-19.902-14.59-3.833 7.322-2.076 15.909 4.057 19.481 5.527 3.2 12.714 1.335 17.378-4.054-.511-.278-1.022-.547-1.533-.837" fill="#fff"/><path d="M866.823 752.955s70.658-25.654 72.584-57.001c1.925-31.361-20.528-51.465-25.891-80.654-5.364-29.171 19.323-27.094-10.075-60.36-29.432-33.28-16.401-100.851-53.776-75.984-37.375 24.852-11.346 54.879-46.865 73.691-35.518 18.828-20.32 41.122-9.867 60.855 10.452 19.733-4.092 24.065-19.668 42.412-15.541 18.361-7.943 58.133 28.47 75.933 36.343 17.787 65.088 21.108 65.088 21.108z" fill="url(#paint2_linear)"/><path d="M942.558 1005.89c3.547-14.989 5.096-28.976 5.096-42.109 0-44.04-17.458-78.359-36.051-108.574-9.297-15.105-18.904-29.226-26.823-43.041-7.92-13.811-14.118-27.305-16.769-41.171-8.436-44.161-22.072-112.841-22.072-180.333 0-41.309 5.131-82.136 19.558-116.548l-3.925-1.639c-14.772 35.187-19.868 76.534-19.903 118.187.035 68.04 13.739 136.971 22.175 181.131 2.755 14.572 9.194 28.48 17.251 42.494 12.052 21.015 27.65 42.322 40.218 66.414 12.568 24.093 22.071 50.92 22.071 83.08 0 12.799-1.515 26.452-4.958 41.129l4.132.98" fill="#FFC4AD"/><path d="M864.207 753.487c-8.244-43.653-18.727-103.693-18.727-162.826 0-41.35 5.123-82.228 19.609-116.721l-3.087-1.296c-14.724 35.107-19.847 76.403-19.847 118.017 0 59.517 10.517 119.733 18.762 163.44l3.29-.614" fill="#fff"/><path d="M824.266 523.953c0 .014 3.38 6.985 7.505 14.548 2.028 3.773 4.293 7.705 6.39 10.998 1.048 1.639 2.062 3.134 3.009 4.374.98 1.255 1.859 2.252 2.772 2.959l1.825-2.347c-.541-.426-1.352-1.291-2.231-2.424-1.555-2.001-3.381-4.868-5.24-8.016-2.772-4.719-5.612-10.064-7.776-14.24-1.082-2.079-1.961-3.867-2.603-5.132a177.888 177.888 0 0 0-.981-2.014l-2.67 1.308M811.342 547.259c0 .028 3.447 6.905 9.024 15.426 5.577 8.507 13.283 18.68 22.003 25.321l1.791-2.362c-8.247-6.266-15.851-16.227-21.293-24.598-2.771-4.188-4.968-7.973-6.523-10.708-.743-1.372-1.352-2.48-1.757-3.241-.203-.385-.338-.679-.44-.878-.101-.2-.135-.295-.135-.295l-2.67 1.335M789.579 562.58c.033.081 3.043 13.774 11.599 29.692 4.295 7.961 9.976 16.47 17.382 24.109 7.44 7.626 16.571 14.386 27.799 18.759l1.082-2.773c-10.754-4.2-19.547-10.68-26.716-18.066-10.788-11.068-17.856-24.186-22.219-34.535-2.164-5.16-3.686-9.638-4.633-12.813-.473-1.586-.845-2.851-1.048-3.707-.101-.439-.203-.771-.237-.984l-.067-.254-.034-.067-2.908.639M794.463 634.672c.068.068 5.008 8.429 14.38 17.375 9.373 8.946 23.211 18.531 41.009 20.852l.372-2.96c-16.918-2.186-30.215-11.359-39.317-20.041a97.263 97.263 0 0 1-10.353-11.653 84.9 84.9 0 0 1-2.673-3.732c-.271-.439-.508-.788-.643-1.028l-.169-.254-.034-.078-2.572 1.519M854.723 701.686c-27.734-7.426-46.02-20.616-57.431-31.922-5.689-5.666-9.651-10.853-12.191-14.612-1.287-1.88-2.167-3.4-2.777-4.44-.271-.535-.508-.934-.643-1.202-.068-.132-.136-.24-.136-.305l-.034-.067-.033-.014-2.676 1.28c.068.109 4.707 9.854 16.39 21.469 11.717 11.625 30.51 25.12 58.752 32.678l.779-2.865M766.366 675.462c.067.132 5.422 12.253 19.62 25.558 14.165 13.307 37.209 27.774 72.384 32.508l.373-2.948c-34.532-4.667-56.931-18.798-70.723-31.733-6.913-6.465-11.658-12.653-14.674-17.187-1.491-2.278-2.575-4.145-3.253-5.426-.339-.654-.61-1.145-.779-1.481-.068-.172-.136-.291-.17-.372l-.034-.092-.033-.027-2.711 1.2M873.706 486.206s-.034.146-.102.456c-.51 2.305-2.992 12.891-7.548 24.304-2.277 5.708-5.099 11.614-8.397 16.761-3.332 5.161-7.174 9.56-11.423 12.307l1.632 2.506c5.066-3.305 9.349-8.452 12.953-14.279 5.405-8.761 9.349-19.08 11.933-27.252 2.617-8.163 3.875-14.164 3.875-14.201l-2.923-.602M891.704 542.607l-.034.133c-.341 1.347-3.582 13.479-11.188 27.013-7.572 13.548-19.475 28.415-37.006 35.493l1.125 2.762c9.516-3.854 17.395-9.853 23.841-16.641 9.687-10.201 16.202-22.187 20.329-31.628 4.127-9.437 5.832-16.358 5.832-16.412l-2.899-.72M907.688 564.899v.133c-.103 1.454-.992 14.866-8.996 31.387-8.039 16.508-23.124 36.132-51.651 50.187l1.299 2.665c30.136-14.811 45.768-35.865 53.806-53.201 8.004-17.318 8.518-30.932 8.518-31.066l-2.976-.105M909.476 611.809l-.068.106c-.65 1.146-6.638 11.4-17.381 22.719-10.71 11.321-26.175 23.693-45.677 29.212l.821 2.867c20.871-5.919 37.089-19.293 48.072-31.145 10.983-11.866 16.799-22.226 16.833-22.308l-2.6-1.451M920.39 643.551l-.068.134c-.754 1.412-7.679 13.946-19.335 26.373-5.828 6.215-12.822 12.399-20.775 17.185-7.953 4.789-16.867 8.149-26.568 8.8l.205 2.976c10.594-.706 20.261-4.494 28.694-9.709 12.685-7.84 22.763-18.906 29.723-28.025 6.924-9.119 10.73-16.294 10.764-16.335l-2.64-1.399M933.843 673.178l-.069.121c-.584 1.374-5.911 13.759-17.664 27.468-11.718 13.718-29.863 28.746-56.015 35.571l.756 2.883c27.767-7.241 46.702-23.481 58.661-37.867 11.994-14.402 17.045-26.973 17.08-27.069l-2.749-1.107" fill="#fff"/><path d="M865.12 1226.26c33.506 59.04 37.263 125.84 15.608 179.63-57.278-8.99-112.712-46.48-146.218-105.51-33.472-59.04-37.263-125.85-15.609-179.64 57.278 9 112.712 46.48 146.219 105.52" fill="#FFC4AD"/><path d="M731.313 1143.41l142.921 251.85 2.243-1.27-142.92-251.85" fill="#fff"/><path d="M761.986 1193.63l-43.848-12.1-.699 2.48 43.881 12.1M786.371 1236.58l-54.045-14.92-.702 2.48 54.078 14.92M810.733 1279.51l-90.365-24.92-.705 2.48 90.399 24.94M760.613 1189.66l12.109-43.86-2.502-.67-12.076 43.85M784.988 1232.61l18.856-68.39-2.483-.68-18.855 68.39M809.357 1275.55l23.61-85.58-2.496-.7-23.611 85.6M833.722 1318.5l24.26-87.92-2.474-.68-24.26 87.91M858.118 1361.45l20.815-75.55-2.483-.68-20.815 75.53" fill="#fff"/><path d="M918.183 870.047l-5.24-2.508c-.651 2.134-68.265 216.851-85.288 502.511l5.754-.19c16.886-284.2 84.089-497.693 84.774-499.813" fill="#194866"/><path d="M865.694 1035.38s7.067-44.467-15.084-80.119c-8.052-12.907-33.158-28.229-46.985-19.627-13.828 8.613-14.813 32.014-3.16 50.801 22.185 35.625 65.229 48.945 65.229 48.945M850.44 1128.98s-11.707-43.51-46.457-67c-12.621-8.49-41.788-12.24-50.89 1.27-9.136 13.5-.474 35.28 17.865 47.65 34.75 23.49 79.482 18.08 79.482 18.08zM883.065 1036.9s40.157 11.35 79.692-2.69c14.342-5.1 35.457-24.07 30.999-36.631-4.458-12.545-26.299-16.267-47.138-8.851-39.57 14.042-63.553 48.172-63.553 48.172M864.645 1130.31s40.607 12.67 80.142-1.37c14.376-5.11 35.284-24.66 30.55-37.96-4.735-13.25-26.783-17.56-47.622-10.16-39.535 14.06-63.07 49.49-63.07 49.49zM848.684 1257.27s33.033 15.38 63.247 4.63c10.931-3.88 25.986-21.36 21.277-34.64-4.709-13.29-22.446-19.12-38.36-13.47-30.214 10.72-46.164 43.48-46.164 43.48M832.598 1254.47s-6.038-34.25-31.13-57.3c-9.107-8.36-31.232-15.82-39.124-7.2-7.892 8.6-2.732 26.18 10.489 38.33 25.127 23.05 59.765 26.17 59.765 26.17M894.067 959.274s42.895-28.588 56.48-75.293c4.931-16.919-.793-50.28-18.378-55.4-17.551-5.134-38.067 12.241-45.239 36.839-13.62 46.694 7.137 93.854 7.137 93.854z" fill="#7DCCD0"/><path d="M883.307 1037.51l110.691-39.316-.449-1.227-110.691 39.323.449 1.22z" fill="#194866"/><path d="M919.92 1024.05l8.304-19.81-1.201-.49-8.304 19.79 1.201.51zM904.395 1115.97l18.374-33.47-1.132-.62-18.374 33.46 1.132.63M957.47 1011.34l12.372-25.452-1.175-.574-12.372 25.456 1.175.57zM956.995 1027.47l.656-1.12-17.661-10.52-.656 1.12 17.661 10.52zM867.327 1039.81l1.087-.74-67.147-100.757-1.12.733 67.18 100.764" fill="#194866"/><path d="M847.891 1009.21l8.265-50.402-1.287-.2-8.265 50.392 1.287.21M824.293 974.088l7.892-35.654-1.282-.28-7.892 35.654 1.282.28zM833.037 988.341l.168-1.309-27.119-3.346-.135 1.308 27.086 3.347zM850.099 1129.53l.711-1.1-99.114-63.2-.711 1.11 99.114 63.19zM862.951 1128.66l111.763-32.44-.38-1.25-111.763 32.44.38 1.25zM832.155 1254.95l.877-.96-70.225-64.5-.911.96 70.259 64.5M848.95 1257.89l84.49-30.02-.446-1.24-84.491 30.03.447 1.23" fill="#194866"/><path d="M808.197 1233.22l1.276-.25-7.389-35.94-1.276.27 7.389 35.92zM787.159 1214.49l.167-1.3-27.094-3.34-.167 1.29 27.094 3.35zM888.762 1243.15l16.642-29.9-1.162-.64-16.608 29.9 1.128.64M788.794 1090.58l1.271-.28-7.998-35.23-1.238.28 7.965 35.23M825.384 1113.58l1.28-.23-4.649-26.4-1.281.23 4.65 26.4zM771.165 1111.51l33.657-11.7-.436-1.24-33.657 11.7.436 1.24zM948.064 1128.1l.654-1.13-29.377-16.26-.62 1.15 29.343 16.24M894.69 959.459l38.12-130.691-1.271-.374-38.085 130.708 1.236.357" fill="#194866"/><path d="M918.45 875.831l29.095-26.333-.895-.972-29.061 26.334.861.971zM908.511 906.326l.957-.893-25.307-26.76-.957.906 25.307 26.747" fill="#194866"/><path d="M652.153 1188.93s-12.99-5.38-19.126-17.14c-2.22-4.26-2.481-13.48 1.958-15.8 4.439-2.3 10.836 1.25 14.068 7.46 6.136 11.76 3.1 25.48 3.1 25.48M663.791 1207.78s-4.263-11.54-.229-22.24c1.443-3.88 7.346-9.32 11.511-7.75 4.165 1.56 5.674 7.78 3.542 13.42-4.034 10.72-14.824 16.57-14.824 16.57M672.826 1231.99s.823-12.25 8.884-20.38c2.896-2.95 10.497-5.51 13.656-2.38 3.158 3.14 2.007 9.42-2.238 13.7-8.029 8.13-20.302 9.06-20.302 9.06zM663.751 1208.49s-10.134 5.17-21.445 3.5c-4.119-.58-10.789-4.54-10.266-8.13.524-3.6 6.179-5.75 12.129-4.88 11.344 1.65 19.582 9.51 19.582 9.51z" fill="#3BB6D5"/><path d="M674.357 1231.38s-10.187 5.56-21.521 3.91c-4.094-.6-10.744-4.72-10.187-8.54.557-3.8 6.224-6.12 12.185-5.25 11.334 1.65 19.523 9.88 19.523 9.88zM682.985 1265.1s-8.005 5.87-16.667 4.61c-3.116-.46-8.103-4.34-7.546-8.14.558-3.8 4.987-6.31 9.548-5.64 8.661 1.26 14.665 9.17 14.665 9.17M684.285 1264.61s-.198-9.48 5.268-16.99c1.976-2.71 7.508-5.88 10.076-4 2.568 1.88 2.14 6.87-.757 10.81-5.499 7.5-14.587 10.18-14.587 10.18" fill="#3BB6D5"/><path d="M746.541 1390.42c2.925-.29 4.619-1.32 4.752-1.39l-1.229-1.98.631.98-.598-1c-.199.12-4.752 2.75-11.996-.41-8.107-3.55-16.082-12.71-23.724-27.2-10.467-19.89-19.904-49.4-28.078-87.71-9.504-44.48-22.429-65.62-30.969-79.62-2.226-3.59-4.087-6.68-5.45-9.44l-2.093 1.01c1.396 2.87 3.323 6.01 5.549 9.64 8.473 13.87 21.266 34.8 30.67 78.89 18.209 85.27 39.043 110.48 53.298 116.62 3.722 1.6 6.878 1.84 9.237 1.61" fill="#3BB6D5"/><path d="M565.361 1291.89v-.14h265.452v-.13h-.138v-.67h-.138v-.8h-.138v-.8h-.103v-.8h-.138v-.8h-.138v-.8h-.138v-.8h-.137v-.66h-.138v-.94h-.138v-1.33h-.138v-1.2h-.103v-1.2h-.138v-1.2h-.138v-1.33h-.138v-1.2h-.138v-2h-.137v-3.07h-.138v-2.93h-.138v-4.27h.138v-6h.138v-1.87h.137v-1.73h.138v-1.87h.138v-1.46h.138v-1.07h.138v-1.2h.103v-1.07h.138v-.93h.138v-.8h.138v-.8h.137v-.8h.138v-.8h.138v-.93h.138v-.8h.103v-.8h.138v-.54h.138v-.66h.138v-.54h.138v-.66h.137v-.67h.138v-.53h.104v-.67h.138v-.53h.137v-.67h.138v-.53h.138v-.67h.138v-.53h.138v-.67h.137v-.53h.104v-.54h.138v-.4h.137v-.4h.138v-.53h.138v-.4h.138v-.53h.138v-.4h.138v-.54h.103v-.4h.138v-.53h.138v-.4h.137v-.4h.138v-.53h.138v-.4h.138v-.54h.103v-.4h.138v-.53h.138v-.27h.138v-.4h.137v-.4h.138v-.4h.138v-.26h.138v-.4h.103v-.4h.138v-.4h.138v-.27h.138v-.4h.138v-.4h.137v-.4h.138v-.27h.138v-.4h.104v-.4h.137v-.4h.138v-.26h.138v-.4h.138v-.4h.138v-.27h.137v-.4h.104v-.4h.138v-.27h.138v-.26h.137v-.27h.138v-.4h.138v-.27h.138v-.26h.138v-.27h.103v-.4h.138v-.27h.138v-.26h.138v-.27h.137v-.4h.138v-.27h.138v-.26h.138v-.27h.103v-.4h.138v-.27h.138v-.26h.138v-.27h.138v-.4h.137v-.27h.138v-.26h.103v-.4h.138v-.27h.138v-.27h.138v-.26h.138v-.14h.138v-.26h.138v-.27h.137v-.27h.103v-.26h.138v-.27h.138v-.27h.138v-.26h.138v-.27h.138v-.27h.138v-.13h.138v-.27h.103v-.26h.137v-.27h.138v-.27h.138v-.26h.138v-.27h.138v-.27h.138v-.26h.103v-.27h.138v-.27h.138v-.13h.137v-.27h.138v-.26h.138v-.27h.138v-.27h.138v-.26h.103v-.14h.138v-.26h.138v-.27h.138v-.13h.137v-.27h.138v-.13h.138v-.27h.138v-.27h.103v-.13h.138v-.27h.138v-.26h.138v-.14h.138v-.26h.137v-.27h.138v-.13h.104v-.27h.138v-.13h.137v-.27h.138v-.27h.138v-.13h.138v-.27h.138v-.26h.137v-.14h.104v-.26h.138v-.14h.138v-.26h.137v-.27h.138v-.13h.138v-.27h.138v-.27h.138v-.13h.103v-.13h.138v-.27h.138v-.13h.138v-.27h.137v-.13h.138v-.27h.138v-.13h.103v-.14h.138v-.26h.138v-.14h.138v-.26h.138v-.14h.138v-.13h.137v-.27h.138v-.13h.103v-.27h.138v-.13h.138v-.13h.138v-.27h.138v-.13h.138v-.27h.138v-.13h.137v-.27h.104v-.13h.137v-.14h.138v-.26h.138v-.14h.138v-.26h.138v-.14h.138v-.13h.103v-.27h.138v-.13h.138v-.27h.137v-.13h.138v-.13h.138v-.14h.138v-.26h.138v-.14h.103v-.13h.138v-.13h.138v-.27h.138v-.13h.137v-.14h.138v-.13h.138v-.27h.138v-.13h.103v-.13h.138v-.14h.138v-.13h.138v-.27h.138v-.13h.137v-.13h.138v-.14h.104v-.26h.138v-.14h.137v-.13h.138v-.13h.138v-.27h.138v-.13h.138v-.14h.137v-.13h.104v-.13h.138v-.27h.138v-.13h.137v-.14h.138v-.13h.138v-.27h.138v-.13h.138v-.13h.103v-.14h.138v-.26h.138v-.14h.137v-.13h.138v-.13h.138v-.14h.138v-.13h.103v-.13h.138v-.14h.138v-.13h.138v-.13h.138v-.14h.137v-.13h.138v-.27h.138v-.13h.103v-.13h.138v-.14h.138v-.13h.138v-.13h.138v-.14h.137v-.13h.138v-.13h.138v-.14h.103v-.13h.138v-.13h.138v-.14h.138v-.26h.138v-.14h.137v-.13h.138v-.13h.104v-.13h.138v-.14h.137v-.13h.138v-.14h.138v-.13h.138v-.13h.138v-.14h.137v-.13h.104v-.27h.138v-.13h.138v-.13h.137v-.14h.138v-.13h.138v-.13h.138v-.14h.138v-.13h.103v-.13h.138v-.14h.276v-.13h.137v-.13h.138v-.14h.138v-.13h.104v-.13h.137v-.14h.138v-.13h.138v-.13h.138v-.14h.138v-.13h.137v-.13h.138v-.14h.104v-.13h.137v-.13h.138v-.13h.138v-.14h.138v-.13h.276v-.14h.137v-.13h.104v-.13h.137v-.14h.138v-.13h.138v-.13h.138v-.14h.138v-.13h.138v-.13h.103v-.14h.138v-.13h.138v-.13h.137v-.14h.138v-.13h.138v-.13h.138v-.14h.138v-.13h.103v-.13h.276v-.14h.138v-.13h.137v-.13h.138v-.14h.138v-.13h.241v-.13h.138v-.14h.138v-.13h.138v-.13h.138v-.14h.275v-.13h.104v-.13h.138v-.13h.137v-.14h.138v-.13h.276v-.14h.138v-.13h.137v-.13h.104v-.14h.138v-.13h.275v-.13h.138v-.14h.138v-.13h.138v-.13h.138v-.14h.241v-.13h.138v-.13h.138v-.14h.137v-.13h.138v-.13h.241v-.14h.138v-.13h.138v-.13h.138v-.14h.138v-.13h.275v-.13h.138v-.14h.103v-.13h.138v-.13h.276v-.14h.138v-.13h.138v-.13h.275v-.14h.103v-.13h.276v-.13h.138v-.13h.138v-.14h.276v-.13h.103v-.13h.138v-.14h.275v-.13h.138v-.14h.276v-.13h.138v-.13h.103v-.14h.276v-.13h.137v-.13h.138v-.14h.276v-.13h.138v-.13h.241v-.14h.138v-.13h.138v-.13h.275v-.14h.138v-.13h.104v-.13h.275v-.14h.138v-.13h.276v-.13h.137v-.14h.138v-.13h.242v-.13h.137v-.14h.138v-.13h.276v-.13h.275v-.14h.104v-.13h.276v-.13h.137v-.14h.276v-.13h.138v-.13h.241v-.13h.276v-.14h.138v-.13h.275v-.14h.138v-.13h.241v-.13h.138v-.14h.276v-.13h.275v-.13h.138v-.14h.241v-.13h.138v-.13h.276v-.14h.275v-.13h.138v-.13h.241v-.14h.138v-.13h.276v-.13h.138v-.14h.241v-.13h.276v-.13h.137v-.14h.276v-.13h.138v-.13h.241v-.14h.276v-.13h.275v-.13h.138v-.14h.276v-.13h.241v-.13h.276v-.14h.275v-.13h.138v-.13h.242v-.13h.275v-.14h.276v-.13h.275v-.14h.242v-.13h.137v-.13h.276v-.14h.276v-.13h.241v-.13h.275v-.14h.138v-.13h.276v-.13h.241v-.14h.276v-.13h.275v-.13h.276v-.14h.138v-.13h.241v-.13h.276v-.14h.275v-.13h.276v-.13h.241v-.14h.276v-.13h.275v-.13h.242v-.14h.275v-.13h.276v-.13h.276v-.14h.241v-.13h.276v-.13h.275v-.14h.276v-.13h.379v-.13h.276v-.13h.275v-.14h.241v-.13h.276v-.14h.276v-.13h.275v-.13h.241v-.14h.276v-.13h.414v-.13h.275v-.14h.241v-.13h.276v-.13h.414v-.14h.241v.14h.138v.13h.137v.13h.138v.14h.138v.13h.138v.13h.138v.14h.241v.13h.138v.13h.138v.14h.137v.13h.138v.14h.138v.13h.138v.13h.103v.13h.138v.14h.138v.13h.138v.13h.138v.14h.137v.13h.138v.13h.104v.14h.138v.13h.137v.13h.138v.14h.138v.13h.138v.13h.138v.27h.137v.13h.104v.14h.138v.13h.138v.13h.137v.14h.138v.13h.138v.13h.138v.14h.138v.13h.103v.13h.138v.14h.138v.13h.138v.13h.137v.14h.138v.13h.138v.14h.103v.13h.138v.13h.138v.13h.138v.14h.138v.13h.138v.13h.137v.14h.138v.13h.103v.27h.138v.13h.138v.13h.138v.14h.138v.13h.138v.13h.137v.14h.138v.13h.103v.13h.138v.27h.138v.13h.138v.14h.138v.13h.138v.13h.138v.14h.103v.13h.138v.13h.137v.14h.138v.26h.138v.14h.138v.13h.138v.14h.138v.13h.103v.13h.138v.13h.138v.14h.137v.13h.138v.27h.138v.13h.138v.13h.138v.14h.103v.13h.138v.13h.138v.14h.138v.13h.137v.13h.138v.27h.138v.13h.104v.14h.137v.13h.138v.27h.138v.13h.138v.13h.138v.14h.137v.13h.138v.27h.104v.13h.138v.13h.137v.14h.138v.27h.138v.13h.138v.13h.138v.14h.137v.26h.104v.13h.138v.14h.138v.13h.137v.27h.138v.13h.138v.13h.138v.14h.103v.13h.138v.27h.138v.13h.138v.13h.137v.14h.138v.26h.138v.14h.138v.13h.103v.13h.138v.27h.138v.13h.138v.14h.137v.13h.138v.27h.138v.13h.138v.13h.103v.14h.138v.27h.138v.13h.138v.13h.138v.27h.137v.13h.138v.27h.104v.13h.138v.13h.137v.27h.138v.13h.138v.27h.138v.13h.138v.14h.137v.26h.104v.14h.138v.13h.138v.27h.137v.13h.138v.27h.138v.13h.138v.13h.138v.27h.103v.13h.138v.27h.138v.14h.138v.13h.137v.26h.138v.14h.138v.13h.103v.27h.138v.13h.138v.27h.138v.13h.138v.13h.138v.27h.137v.13h.138v.27h.104v.13h.137v.27h.138v.13h.138v.27h.138v.13h.138v.27h.138v.13h.137v.27h.104v.13h.137v.27h.138v.27h.138v.13h.138v.27h.138v.13h.138v.27h.103v.13h.138v.27h.137v.13h.138v.27h.138v.26h.138v.14h.138v.26h.138v.14h.103v.26h.138v.14h.138v.26h.137v.14h.138v.26h.138v.27h.138v.13h.138v.27h.103v.13h.138v.27h.138v.13h.138v.27h.137v.27h.138v.13h.138v.27h.104v.26h.137v.27h.138v.13h.138v.27h.138v.27h.138v.26h.137v.14h.138v.26h.104v.27h.138v.27h.137v.13h.138v.27h.138v.26h.138v.27h.138v.27h.137v.13h.104v.27h.138v.26h.138v.27h.137v.13h.138v.27h.138v.27h.138v.26h.103v.14h.138v.26h.138v.27h.138v.27h.138v.13h.137v.27h.138v.26h.138v.27h.103v.27h.138v.26h.138v.27h.138v.27h.138v.26h.138v.27h.137v.27h.138v.26h.103v.27h.138v.27h.138v.26h.138v.27h.138v.27h.138v.26h.138v.27h.103v.27h.138v.26h.137v.27h.138v.27h.138v.26h.138v.27h.138v.27h.138v.26h.103v.4h.138v.27h.138v.27h.137v.26h.138v.27h.138v.27h.138v.4h.138v.26h.103v.27h.138v.4h.138v.27h.138v.26h.137v.4h.138v.27h.138v.27h.104v.4h.137v.26h.138v.27h.138v.4h.138v.27h.138v.26h.137v.4h.138v.27h.104v.27h.138v.4h.137v.26h.138v.27h.138v.4h.138v.27h.138v.4h.137v.4h.104v.26h.138v.4h.138v.4h.137v.4h.138v.4h.138v.27h.138v.4h.103v.4h.138v.4h.138v.27h.138v.4h.138v.4h.137v.4h.138v.26h.138v.4h.103v.4h.138v.4h.138v.27h.138v.4h.138v.4h.137v.53h.138v.4h.138v.4h.103v.54h.138v.4h.138v.4h.138v.53h.138v.4h.137v.53h.138v.4h.104v.4H946v.54h.138v.4h.138v.4h.138v.53h.138v.4h.138v.4h.137v.53h.104v.54h.138v.66h.137v.54h.138v.53h.138v.67h.138v.53h.138v.53h.137v.54h.104v.66h.138v.54h.138v.53h.137v.67h.138v.53h.138v.53h.138v.8h.103v.8h.138v.67h.138v.8h.138v.8h.138v.8h.137v.8h.138v.8h.138v.8h.104v.67h.137v.93h.138v1.2h.138v1.2h.138v1.2h.138v1.33h.137v1.2h.138v1.2h.104v1.74h.137v2.93h.138v3.07h.138v6.13h-.138v5.07h-.138v1.86h-.137v1.74h-.104v1.86h-.138v1.2h-.137v1.2h-.138v1.07h-.138v1.2h-.138v.8h-.138v.8h-.137v.8h-.104v.93h-.138v.8h-.138v.8h-.137v.8h-.138v.8h-.138v.54h-.138v.66h-.138v.54h-.103v.66h-.138v.67h-.138v.53h-.138v.67h-.137v.53h-.138v.67h-.138v.53h-.104v.67h-.137v.53h-.138v.67h-.138v.27" fill="url(#paint3_linear)"/><path d="M900.688 1169.02l-23.124 196.65 1.947.23 23.09-196.65" fill="#0C1153"/><path d="M897.363 1209.02l-23.409-27.09-1.468 1.26 23.41 27.08M893.429 1242.54l-28.883-33.37-1.432 1.26 28.849 33.38M889.474 1276.09l-48.251-55.82-1.466 1.27 48.252 55.8M885.54 1309.61l-46.958-54.3-1.43 1.27 46.924 54.29M898.205 1206.55l28.541-16.6-.96-1.66-28.576 16.6M894.245 1240.09l44.52-25.9-.962-1.66-44.52 25.89M890.293 1273.62l55.731-32.41-.964-1.67-55.731 32.41M886.356 1307.15l57.256-33.29-.964-1.67-57.255 33.3" fill="#0C1153"/><path d="M990.266 1327.45c-30.757 34.12-72.85 50.81-112.005 48.4-6.462-38.71 5.771-82.3 36.529-116.42 30.722-34.13 72.815-50.82 111.97-48.41 6.5 38.71-5.77 82.29-36.494 116.43" fill="#E36B9D"/><path d="M1014.87 1223.83l-131.183 145.59 1.314 1.16 131.149-145.57" fill="#0C1153"/><path d="M966.823 1279.09l-1.97-37.9-1.727.1 1.935 37.89M944.459 1303.91l-3.303-63.34-1.756.08 3.304 63.36M922.096 1328.74l-3.223-61.64-1.713.09 3.188 61.63" fill="#0C1153"/><path d="M846.442 156.179H728.269s28.47-50.319 49.129-50.319c19.205 0 19.949 35.52 32.223 37.308 12.273 1.772 10.008-5.362 19.949-5.335 9.332.027 16.872 18.346 16.872 18.346" fill="url(#paint4_linear)"/><defs><linearGradient id="paint0_linear" x1="8523.84" y1="2778.22" x2="8514.72" y2="246.61" gradientUnits="userSpaceOnUse"><stop stop-color="#F69290"/><stop offset="1" stop-color="#fff"/></linearGradient><linearGradient id="paint1_linear" x1="8065.45" y1="-1365.2" x2="8608.12" y2="838.565" gradientUnits="userSpaceOnUse"><stop stop-color="#F69290"/><stop offset="1" stop-color="#fff"/></linearGradient><linearGradient id="paint2_linear" x1="10491.1" y1="813.838" x2="9119.03" y2="-1508.09" gradientUnits="userSpaceOnUse"><stop stop-color="#F69290"/><stop offset="1" stop-color="#fff"/></linearGradient><linearGradient id="paint3_linear" x1="9528.6" y1="832.311" x2="9848.11" y2="808.748" gradientUnits="userSpaceOnUse"><stop stop-color="#BF0A5E"/><stop offset=".052" stop-color="#BF0A5E"/><stop offset=".985" stop-color="#FFE194"/><stop offset="1" stop-color="#FFE194"/></linearGradient><linearGradient id="paint4_linear" x1="9173.29" y1="-2462.74" x2="9159.76" y2="-1874.44" gradientUnits="userSpaceOnUse"><stop stop-color="#F69290"/><stop offset="1" stop-color="#fff"/></linearGradient></defs></svg>