<?xml version="1.0" encoding="iso-8859-1"?>
<!-- Generator: Adobe Illustrator 19.0.0, SVG Export Plug-In . SVG Version: 6.00 Build 0)  -->
<svg xmlns="http://www.w3.org/2000/svg" xmlns:xlink="http://www.w3.org/1999/xlink" version="1.1" id="Layer_1" x="0px" y="0px" viewBox="0 0 512 512" style="enable-background:new 0 0 512 512;" xml:space="preserve" width="512px" height="512px">
<g>
	<g>
		<path d="M400.513,407.675c-1.773-4.253-6.66-6.262-10.911-4.489l-72.932,30.422c-14.685,6.134-31.1,6.767-46.226,1.78    L99.38,379.024c-10.772-3.556-22.425-3.001-32.806,1.556l-6.788,2.971c-4.221,1.849-6.145,6.768-4.298,10.989    c1.848,4.221,6.769,6.144,10.989,4.296l6.796-2.975c6.609-2.901,14.023-3.254,20.879-0.992l171.067,56.366    c8.442,2.782,17.205,4.168,25.954,4.168c10.877,0,21.734-2.14,31.923-6.397l72.928-30.421    C400.277,416.813,402.287,411.928,400.513,407.675z" fill="#00a7c5"/>
	</g>
</g>
<g>
	<g>
		<path d="M508.861,328.574l-0.116-0.27c-7.508-17.411-26.418-26.822-44.549-22.909c2.297-7.44,1.921-15.37-1.135-22.635    c-3.446-8.192-9.88-14.541-18.137-17.885c-0.089-0.036-0.185-0.072-0.287-0.11c-6.784-2.678-14.138-2.974-20.936-1.119V209.56    c0-4.608-3.736-8.344-8.344-8.344c-4.608,0-8.344,3.736-8.344,8.344v115.511l-73.351,25.666    c-7.953,2.776-16.702,2.776-24.636,0.001l-86.228-30.133v-33.621l82.572,28.236c16.668,5.715,35.221-2.337,42.477-18.33h10.441    c4.608,0,8.344-3.736,8.344-8.344V191.76c0-4.608-3.736-8.344-8.344-8.344h-86.773c-4.608,0-8.344,3.736-8.344,8.344v33.598    l-40.372-15.486v-62.278l92.102-60.989l92.113,60.991v34.154c0,4.608,3.736,8.344,8.344,8.344c4.608,0,8.344-3.736,8.344-8.344    v-23.111l22.904,15.165c1.417,0.939,3.016,1.388,4.599,1.388c2.704,0,5.359-1.314,6.964-3.738    c2.544-3.843,1.492-9.019-2.351-11.563l-45.466-30.106V64.939c0-4.608-3.736-8.344-8.344-8.344h-50.062    c-4.608,0-8.344,3.736-8.344,8.344v20.65l-24.091-15.952c-2.792-1.849-6.42-1.849-9.212,0l-136.305,90.257    c-3.843,2.544-4.894,7.721-2.351,11.563c2.545,3.844,7.723,4.895,11.563,2.351l22.905-15.166v44.833l-28.14-10.794    c-1.081-0.429-2.269-0.863-3.728-1.363c-29.6-10.17-63.345-5.529-90.264,12.41L3.718,257.193    c-3.835,2.554-4.873,7.735-2.317,11.57c2.554,3.834,7.734,4.873,11.57,2.317l80.262-53.468    c22.62-15.074,50.876-19.006,75.6-10.512c1.208,0.414,2.156,0.759,3.072,1.121l150.97,57.911c4.483,1.711,8.004,5.092,9.913,9.52    c1.97,4.567,1.964,9.573-0.023,14.106c-3.663,8.397-13.32,12.647-21.989,9.674l-95.77-32.749    c-7.651-2.619-15.957-2.296-23.391,0.908c-9.235,3.983-16.002,11.831-18.567,21.532c-4.313,16.294,4.784,33.43,20.717,39.012    l109.758,38.356c11.482,4.014,24.14,4.014,35.646-0.001l125.839-44.032c11.223-3.931,23.709,1.535,28.443,12.512l0.048,0.112    c2.372,5.611,2.411,11.809,0.106,17.451c-2.308,5.65-6.683,10.058-12.319,12.409l-67.196,28.029    c-4.253,1.774-6.262,6.659-4.489,10.912c1.336,3.203,4.438,5.134,7.704,5.134c1.07,0,2.159-0.208,3.208-0.645l67.196-28.029    c9.763-4.074,17.342-11.709,21.342-21.5C513.046,349.063,512.98,338.316,508.861,328.574z M360.289,73.282h33.374v45.455    l-33.374-22.099V73.282z M328.836,250.548l-48.979-18.788v-31.656h70.086v74.461c-0.454-1.878-1.059-3.727-1.832-5.52    C344.402,260.444,337.551,253.872,328.836,250.548z M206.11,314.775l-6.837-2.388c-7.76-2.72-12.194-11.061-10.095-18.993    c1.248-4.718,4.543-8.537,9.043-10.477c2.509-1.082,5.221-1.473,7.889-1.196V314.775z M447.737,301.926l-4.281,10.396    l-19.754,6.912V281.66h-0.001c4.393-2.746,9.922-3.315,14.822-1.367c0.078,0.031,0.161,0.063,0.25,0.096    c4.047,1.668,7.208,4.805,8.908,8.844C449.399,293.317,449.418,297.83,447.737,301.926z" fill="#00a7c5"/>
	</g>
</g>
<g>
</g>
<g>
</g>
<g>
</g>
<g>
</g>
<g>
</g>
<g>
</g>
<g>
</g>
<g>
</g>
<g>
</g>
<g>
</g>
<g>
</g>
<g>
</g>
<g>
</g>
<g>
</g>
<g>
</g>
</svg>
