<svg width="1440" height="888" viewBox="0 0 1440 888" fill="none" xmlns="http://www.w3.org/2000/svg">
<rect width="1440" height="888" fill="white"/>
<path fill-rule="evenodd" clip-rule="evenodd" d="M980.349 270.459C1020.34 270.459 1052.76 242.822 1052.76 208.729C1052.76 174.637 1020.34 147 980.349 147C940.358 147 907.939 174.637 907.939 208.729C907.939 242.822 940.358 270.459 980.349 270.459Z" fill="#F2F2F2"/>
<path fill-rule="evenodd" clip-rule="evenodd" d="M980.349 163.306C982.612 163.306 984.447 161.742 984.447 159.812C984.447 157.882 982.612 156.318 980.349 156.318C978.085 156.318 976.25 157.882 976.25 159.812C976.25 161.742 978.085 163.306 980.349 163.306Z" fill="black" fill-opacity="0.1"/>
<path fill-rule="evenodd" clip-rule="evenodd" d="M922.968 212.224C925.231 212.224 927.066 210.659 927.066 208.729C927.066 206.8 925.231 205.235 922.968 205.235C920.704 205.235 918.869 206.8 918.869 208.729C918.869 210.659 920.704 212.224 922.968 212.224Z" fill="black" fill-opacity="0.1"/>
<path fill-rule="evenodd" clip-rule="evenodd" d="M1037.73 212.224C1039.99 212.224 1041.83 210.659 1041.83 208.729C1041.83 206.8 1039.99 205.235 1037.73 205.235C1035.47 205.235 1033.63 206.8 1033.63 208.729C1033.63 210.659 1035.47 212.224 1037.73 212.224Z" fill="black" fill-opacity="0.1"/>
<path fill-rule="evenodd" clip-rule="evenodd" d="M980.349 261.141C982.612 261.141 984.447 259.577 984.447 257.647C984.447 255.717 982.612 254.153 980.349 254.153C978.085 254.153 976.25 255.717 976.25 257.647C976.25 259.577 978.085 261.141 980.349 261.141Z" fill="black" fill-opacity="0.1"/>
<path fill-rule="evenodd" clip-rule="evenodd" d="M980.349 166.8L983.081 207.565H977.616L980.349 166.8Z" fill="#AFB9C5"/>
<path fill-rule="evenodd" clip-rule="evenodd" d="M1004.53 229.343L979.411 211.224L983.275 207.93L1004.53 229.343Z" fill="#AFB9C5"/>
<path fill-rule="evenodd" clip-rule="evenodd" d="M980.349 213.388C983.367 213.388 985.813 211.302 985.813 208.729C985.813 206.156 983.367 204.071 980.349 204.071C977.33 204.071 974.884 206.156 974.884 208.729C974.884 211.302 977.33 213.388 980.349 213.388Z" fill="#C5CFD6"/>
<g opacity="0.345889">
<path fill-rule="evenodd" clip-rule="evenodd" d="M990.675 532.966C979.83 443.227 397.946 270.021 289.921 355.02C181.896 440.019 285.749 599.54 512.129 640.389C738.509 681.239 1001.52 622.705 990.675 532.966Z" fill="#F2F2F2"/>
<path fill-rule="evenodd" clip-rule="evenodd" d="M491.235 591.274C501.267 515.037 1039.56 367.892 1139.49 440.102C1239.42 512.312 1214.12 664.198 1004.7 698.901C795.285 733.604 481.202 667.511 491.235 591.274Z" fill="#DDE3E9"/>
</g>
<path fill-rule="evenodd" clip-rule="evenodd" d="M319.783 292.208C351.851 292.208 377.847 280.475 377.847 266.002C377.847 251.529 351.851 239.796 319.783 239.796C287.715 239.796 261.719 251.529 261.719 266.002C261.719 280.475 287.715 292.208 319.783 292.208Z" fill="#F2F2F2"/>
<path fill-rule="evenodd" clip-rule="evenodd" d="M387.411 284.055C387.411 251.893 357.133 225.82 319.783 225.82C282.433 225.82 252.156 251.893 252.156 284.055" fill="#DDE3E9"/>
<rect x="426" y="48" width="5" height="272" fill="#DDE3E9"/>
<g opacity="0.7">
<path fill-rule="evenodd" clip-rule="evenodd" d="M425.665 233.188C449.635 233.188 469.066 223.72 469.066 212.04C469.066 200.36 449.635 190.891 425.665 190.891C401.695 190.891 382.263 200.36 382.263 212.04C382.263 223.72 401.695 233.188 425.665 233.188Z" fill="#F2F2F2"/>
<path fill-rule="evenodd" clip-rule="evenodd" d="M476.215 226.609C476.215 200.653 453.583 179.612 425.665 179.612C397.747 179.612 375.115 200.653 375.115 226.609" fill="#DDE3E9"/>
<rect x="504" y="48" width="5" height="248" fill="#DDE3E9"/>
</g>
<path d="M802 289.125L902.055 258.707C903.572 258.246 905.192 258.246 906.709 258.707L1145.65 331.348C1152.39 333.397 1157 339.613 1157 346.657V764" stroke="#CBCBCB" stroke-width="8"/>
<rect x="1127" y="763" width="59" height="7" rx="3" fill="#AFB9C5"/>
<path d="M972.232 303.972C987.153 291.252 1011.34 291.252 1026.26 303.972L1035.99 312.266C1050.91 324.986 1050.91 345.608 1035.99 358.328L1004.08 385.535L940.318 331.179L972.232 303.972Z" fill="#C5CFD6"/>
<path fill-rule="evenodd" clip-rule="evenodd" d="M966.998 363.084C984.605 378.094 1001.69 387.865 1005.16 384.909C1008.63 381.952 997.164 367.388 979.557 352.378C961.95 337.368 944.865 327.597 941.397 330.553C937.929 333.51 949.391 348.074 966.998 363.084Z" fill="#F2F2F2"/>
<path fill-rule="evenodd" clip-rule="evenodd" d="M304.424 481.472C308.337 481.065 312.514 481.209 316.154 482.525C323.893 485.326 326.093 493.121 325.987 499.456C325.873 506.275 324.174 513.722 330.255 519.217C333.05 521.742 336.528 523.675 339.273 526.248C342.205 528.996 344.507 532.142 346.211 535.519C349.339 541.723 350.875 549.018 348.014 555.526C345.495 561.255 339.157 566.427 340.527 572.942C341.955 579.738 349.993 584.934 355.018 589.997C360.705 595.726 365.942 603.048 366.802 610.561C367.627 617.761 363.95 625.042 358.309 630.485C347.036 641.36 330.091 646.692 313.006 646.659C305.752 646.644 297.539 646.365 291.279 643.042C289.344 642.015 288.323 640.862 287.173 639.26C286.142 637.824 284.78 636.889 283.203 635.873C279.739 633.64 277.237 630.631 275.641 627.263C269.441 614.18 274.396 597.995 283.074 586.377C285.131 583.625 286.814 580.976 285.815 577.695C284.773 574.27 282.211 571.181 279.944 568.237C277.705 565.328 275.148 562.552 273.398 559.407C271.565 556.111 271.049 552.66 271.373 549.054C271.981 542.279 275.412 536.028 280.269 530.579C284.947 525.331 290.439 520.31 290.452 513.433C290.465 506.145 284.75 499.662 287.185 492.253C288.193 489.184 290.218 486.036 293.481 484.197C296.611 482.433 300.743 481.856 304.424 481.472Z" fill="#DDE3E9"/>
<path fill-rule="evenodd" clip-rule="evenodd" d="M301.866 493.123C301.94 492.144 303.302 491.557 304.374 491.813C305.785 492.149 305.758 493.273 305.721 494.275C305.607 497.353 306.129 500.345 306.997 503.332C308.801 509.542 312.136 515.264 314.777 521.229C317.417 527.19 318.655 533.344 317.107 539.651C315.648 545.597 313.354 551.39 311.861 557.344C310.544 562.592 309.143 568.126 311.148 573.36C313.078 578.399 317.343 582.502 320.415 587.055C326.773 596.481 329.594 606.938 329.971 617.699C330.146 622.696 329.989 627.738 328.629 632.639C327.846 635.461 326.794 639.275 323.958 641.223C322.65 642.122 320.413 642.432 319.312 641.102C318.278 639.854 319.185 637.922 319.513 636.592C320.934 630.834 321.22 624.95 320.88 619.104C320.55 613.441 319.766 607.787 317.675 602.379C315.735 597.36 312.787 592.852 309.317 588.461C305.782 583.987 302.107 579.503 300.646 574.202C299.162 568.817 300.368 563.338 301.98 558.056C303.685 552.47 305.918 547.044 308.227 541.608C310.477 536.312 311.274 531.301 310.032 525.758C307.579 514.807 301.011 504.528 301.866 493.123Z" fill="#C5CFD6"/>
<path fill-rule="evenodd" clip-rule="evenodd" d="M407.757 494.761C412.6 496.014 417.41 498.037 420.862 501.208C428.203 507.953 425.951 518.146 421.898 525.591C417.536 533.605 410.926 541.66 414.653 550.854C416.365 555.081 419.245 558.909 420.87 563.168C422.606 567.72 423.355 572.46 423.259 577.21C423.083 585.934 420.361 595.243 412.97 601.67C406.463 607.329 395.823 610.634 393.39 618.946C390.852 627.617 397.058 637.327 399.813 645.542C402.931 654.84 404.533 665.822 400.884 675.088C397.388 683.969 388.561 690.95 378.569 694.884C358.604 702.747 335.424 701.537 315.405 693.921C306.906 690.686 297.446 686.714 292.164 680.007C290.532 677.935 290.049 676.119 289.694 673.714C289.375 671.558 288.356 669.849 287.137 667.948C284.458 663.771 283.39 659.103 283.605 654.411C284.445 636.189 300.292 619.246 317.674 609.355C321.792 607.012 325.409 604.626 326.272 600.303C327.172 595.791 326.082 591.002 325.25 586.515C324.427 582.081 323.149 577.665 323.047 573.168C322.94 568.458 324.474 564.148 327.09 560.027C332.004 552.285 339.904 546.413 348.979 542.123C357.719 537.991 367.275 534.489 371.553 526.362C376.087 517.749 373.403 507.547 380.853 499.864C383.938 496.683 388.265 493.858 393.233 493.13C397.998 492.432 403.202 493.582 407.757 494.761Z" fill="#DDE3E9"/>
<path fill-rule="evenodd" clip-rule="evenodd" d="M397.864 509.003C398.551 507.877 400.504 507.79 401.601 508.572C403.045 509.601 402.322 510.92 401.664 512.089C399.639 515.684 398.412 519.46 397.592 523.385C395.886 531.546 396.27 539.812 395.694 548.056C395.119 556.294 392.787 564.136 387.102 570.913C381.742 577.303 375.502 583.138 370.097 589.521C365.334 595.148 360.296 601.075 359.425 608.17C358.585 614.999 361.052 621.764 361.847 628.529C363.491 642.532 360.366 656.176 354.196 669.088C351.331 675.084 348.048 680.985 343.448 686.181C340.799 689.174 337.226 693.22 332.712 694.26C330.631 694.739 327.824 694.108 327.354 692.04C326.912 690.1 329.159 688.218 330.36 686.789C335.559 680.606 339.508 673.765 342.702 666.69C345.796 659.836 348.351 652.791 349.229 645.452C350.044 638.641 349.366 631.985 348.007 625.235C346.622 618.357 345.079 611.405 346.627 604.474C348.2 597.434 352.976 591.485 358.106 585.95C363.531 580.096 369.476 574.668 375.515 569.263C381.4 563.997 385.411 558.419 387.364 551.299C391.222 537.234 389.857 522.127 397.864 509.003Z" fill="#C5CFD6"/>
<path fill-rule="evenodd" clip-rule="evenodd" d="M258.038 546.494C266.091 546.494 273.171 550.133 278.049 555.297C283.76 561.342 284.913 568.724 287.232 575.929C288.386 579.514 290.371 583.073 293.849 585.509C297.012 587.724 301.028 588.168 304.814 589.25C312.381 591.413 318.492 596.624 320.905 602.982C323.849 610.737 320.73 618.558 321.267 626.418C321.76 633.636 330.108 638.139 336.825 641.599C343.448 645.011 349.414 648.205 351.409 654.852C353.524 661.902 354.234 669.771 351.304 676.735C346.426 688.331 332.151 693.437 318.357 694.228C305.838 694.947 290.098 693.819 280.696 686.072C275.071 681.436 273.034 674.953 273.286 668.503C273.443 664.492 274.375 660.518 275.58 656.642C276.435 653.895 277.588 651.159 277.917 648.321C278.791 640.768 270.603 639.317 263.633 637.244C254.776 634.608 248.576 629.631 244.264 622.696C240.249 616.238 238.564 608.99 240.971 601.881C242.2 598.251 244.43 594.957 247.454 592.156C248.785 590.923 250.662 589.895 251.863 588.599C252.985 587.39 252.74 585.822 252.354 584.405C250.567 577.86 244.999 572.441 243.008 565.908C241.21 560.011 242.273 552.672 248.597 548.868C251.329 547.224 254.699 546.512 258.038 546.494Z" fill="#C5CFD6"/>
<path fill-rule="evenodd" clip-rule="evenodd" d="M269.011 563.547C277.546 571.298 279.866 581.814 280.547 592.006C280.929 597.722 280.532 603.75 282.501 609.294C284.187 614.039 288.138 617.666 292.21 621.094C300.408 627.995 309.551 635.01 311.949 644.998C313.356 650.859 312.406 656.912 314.35 662.709C316.118 667.978 319.23 673.154 323.016 677.603C326.064 681.186 330.035 683.929 333.367 687.269C334.384 688.288 335.84 689.789 335.42 691.228C334.929 692.914 332.411 693.448 330.624 693.183C326.458 692.566 322.951 689.174 320.227 686.709C316.244 683.104 312.859 679.226 310.108 674.876C307.054 670.046 304.595 664.92 303.544 659.501C302.454 653.878 302.997 648.019 300.507 642.623C296.317 633.544 286.155 628.186 278.808 621.11C269.653 612.293 271.019 601.319 271.956 590.472C272.471 584.512 272.983 577.781 269.45 572.338C268.102 570.261 265.095 568.324 264.515 565.963C263.984 563.799 266.883 561.613 269.011 563.547Z" fill="#AFB9C5"/>
<path fill-rule="evenodd" clip-rule="evenodd" d="M278.114 690.918C278.114 735.245 286.599 758.471 331.396 758.471C376.193 758.471 384.678 735.245 384.678 690.918H278.114Z" fill="#89C5CC"/>
<rect x="462.553" y="626.859" width="51.9162" height="10.4824" rx="2" fill="#AFB9C5"/>
<rect x="444.792" y="593.082" width="87.4378" height="87.353" rx="27.5" fill="#DDE3E9"/>
<path fill-rule="evenodd" clip-rule="evenodd" d="M440.177 461.096C440.177 461.096 463.661 459.141 487.145 459.141C510.628 459.141 534.112 461.096 534.112 461.096L540.427 553.637C540.427 553.637 513.786 555.812 487.145 555.812C460.504 555.812 433.862 553.637 433.862 553.637L440.177 461.096Z" fill="#C5CFD6"/>
<path fill-rule="evenodd" clip-rule="evenodd" d="M402.439 758.471V662.965V637.341H431.13H544.526H573.216V662.965V758.471H544.526V662.965H431.13V758.471H402.439Z" fill="#F2F2F2"/>
<path fill-rule="evenodd" clip-rule="evenodd" d="M974.038 430.266C986.106 454.712 1006.62 471.697 1017.48 497.116C1023.93 512.19 1026.61 528.58 1026.78 545.367C1026.86 554.484 1026.68 563.608 1026.63 572.726C1026.58 581.617 1026.3 590.452 1025.41 599.286C1024.52 608.168 1023.53 616.943 1023.09 625.88C1022.74 632.842 1022.59 640.941 1019.82 647.292C1017.62 652.343 1012.02 653.083 1010.54 646.958C1009.71 643.552 1009.82 639.75 1009.91 636.25C1010.02 631.76 1010.33 627.276 1010.49 622.787C1011.11 604.772 1010.3 586.753 1010.73 568.73C1011.14 551.122 1013.8 533.532 1010.86 516.041C1008.43 501.597 1002.27 489.194 995.188 477.303C988.374 465.863 980.957 454.7 976.352 441.687C975.03 437.95 974.008 434.077 973.518 430.059C973.732 429.974 973.905 430.043 974.038 430.266Z" fill="#C1DEE2"/>
<path fill-rule="evenodd" clip-rule="evenodd" d="M970.749 478.495C973.139 479.966 974.474 482.118 976.089 484.241C978.098 486.881 980.459 489.264 982.467 491.906C986.654 497.413 990.333 503.259 994.15 508.989C1001.4 519.866 1006.9 531.459 1009.62 544.042C1012.45 557.083 1013.21 570.543 1014.39 583.779C1015.65 597.807 1016.92 611.937 1017.08 626.019C1017.16 632.328 1017.56 639.025 1016.67 645.29C1016.12 649.19 1014.05 652.514 1009.4 652.482C999.51 652.415 994.868 643.08 992.929 635.424C990.075 624.15 989.505 612.175 989.957 600.646C990.503 586.744 993.333 573.051 994.558 559.203C995.855 544.543 995.122 530.142 989.21 516.339C986.223 509.363 982.757 502.555 979.644 495.626C978.319 492.675 977.233 489.645 975.443 486.898C973.451 483.842 970.979 481.068 969.419 477.776C969.862 478.016 970.306 478.256 970.749 478.495Z" fill="#89C5CC"/>
<path fill-rule="evenodd" clip-rule="evenodd" d="M1084.64 449.262C1084.94 449.061 1085.24 448.86 1085.55 448.659C1084.67 451.795 1083.1 454.342 1081.89 457.209C1080.81 459.787 1080.26 462.703 1079.53 465.52C1077.81 472.137 1075.83 478.604 1074.22 485.277C1071.01 498.481 1071.62 512.706 1073.72 527.356C1075.7 541.194 1078.84 555.011 1080.34 568.847C1081.58 580.321 1082.11 592.153 1080.93 603.1C1080.12 610.535 1077.49 619.412 1070.31 618.661C1066.93 618.308 1065.17 614.84 1064.46 610.926C1063.32 604.638 1063.08 598.028 1062.63 591.775C1061.64 577.82 1061.44 563.908 1061.25 550.096C1061.06 537.065 1060.55 523.775 1061.57 511.072C1062.56 498.815 1065.64 487.769 1070.05 477.578C1072.37 472.209 1074.58 466.714 1077.18 461.597C1078.43 459.142 1079.96 456.973 1081.21 454.521C1082.22 452.548 1083.02 450.524 1084.64 449.262Z" fill="#C1DEE2"/>
<path fill-rule="evenodd" clip-rule="evenodd" d="M973.803 518.893C975.11 517.022 977.988 523.192 978.426 523.968C978.241 523.582 978.055 523.197 977.867 522.812C980.462 526.49 982.836 530.32 984.312 534.537C985.773 538.713 987.027 542.973 988.398 547.178C990.969 555.068 994.286 562.733 996.616 570.694C998.886 578.452 999.459 586.078 998.909 594.102C998.338 602.441 997.989 610.909 998.655 619.244C998.973 623.225 1000.49 626.933 1001.53 630.766C1002.57 634.602 1003.39 638.489 1004.62 642.278C1004.91 641.785 1004.94 643.435 1004.94 643.56C1004.93 644.506 1004.78 645.3 1004.42 646.198C1003.5 648.506 1001.79 650.466 999.172 651.103C994.45 652.253 990.066 648.591 988.543 644.724C986.358 639.176 985.154 633.045 984.113 627.213C983.159 621.865 982.933 616.486 983.216 611.065C983.775 600.374 986.044 589.823 986.658 579.136C987.326 567.5 984.622 556.568 982.358 545.242C981.268 539.784 980.225 534.379 978.103 529.179C977.244 527.074 976.123 525.216 974.949 523.272C974.28 522.165 972.929 520.192 973.803 518.893Z" fill="#C1DEE2"/>
<path fill-rule="evenodd" clip-rule="evenodd" d="M1012.12 500.718C1011.57 514.048 1010.64 527.276 1008.56 540.466C1006.43 553.925 1003.98 567.339 1001.94 580.81C999.945 593.924 997.856 607.255 998.135 620.551C998.34 630.345 996.435 646.914 1009.19 651.747C1022.12 656.643 1024.89 635.738 1025.74 628.838C1027.36 615.6 1026.84 602.222 1026.05 588.911C1025.24 575.25 1023.89 561.659 1022.21 548.047C1020.35 532.929 1018.89 517.742 1017.71 502.58C1017.13 495.081 1016.99 487.593 1017.15 480.092C1017.3 473.014 1016.99 465.862 1014.03 459.141C1013.88 459.237 1013.73 459.332 1013.57 459.428" fill="#69A1AC"/>
<path fill-rule="evenodd" clip-rule="evenodd" d="M1078.83 542.948C1076.51 545.834 1074.16 548.692 1071.97 551.75C1068.04 557.219 1064.49 563.303 1063.42 571.124C1061.19 587.492 1062.98 605.171 1063.41 622.04C1063.5 625.487 1062.99 628.831 1064.58 632.111C1066.03 635.086 1068.73 637.353 1071.31 637.341C1076.82 637.314 1075.98 625.805 1075.99 620.739C1076 611.86 1074.84 602.892 1074.94 594.021C1075.04 585.233 1075.66 576.42 1077.16 568.074C1078.67 559.626 1080.89 551.513 1083.81 543.943C1084.22 542.892 1087.13 534.774 1084.38 536.173" fill="#89C5CC"/>
<path fill-rule="evenodd" clip-rule="evenodd" d="M1054.48 455.647C1050.86 455.647 1050.88 471.051 1050.77 473.03C1050.38 480.17 1050.47 487.313 1050.22 494.454C1049.68 510.04 1049.01 525.762 1046.26 541.167C1044.78 549.46 1043.07 557.717 1041.22 565.947C1039.37 574.201 1036.89 582.445 1035.68 590.804C1034.51 598.839 1035.17 607.032 1035.33 615.107C1035.49 623.231 1035.78 631.371 1037.02 639.423C1037.33 641.411 1037.69 643.392 1038.08 645.367C1038.4 647.014 1038.21 649.055 1038.76 650.62C1039.63 653.126 1043.38 653.946 1045.9 653.554C1052.72 652.492 1057.07 645.191 1059.4 639.857C1062.38 633.045 1063.96 625.656 1065.52 618.478C1067.28 610.345 1068.32 602.088 1068.8 593.808C1069.79 576.981 1068.52 560.135 1067.11 543.361C1066.32 534.033 1065.41 524.745 1064.02 515.474C1062.64 506.243 1060.86 497.053 1059.71 487.795C1058.87 481.066 1058.04 474.329 1057.49 467.575C1057.36 465.965 1057.25 455.647 1054.48 455.647Z" fill="#69A1AC"/>
<path fill-rule="evenodd" clip-rule="evenodd" d="M1049.94 567.62C1049.35 551.447 1041.73 480.407 1039.99 460.85C1039.56 455.955 1035.38 435.573 1034.84 430.024C1033.37 431.592 1033.5 456.008 1033.51 461.618C1033.53 467.167 1032.72 472.624 1032.31 478.144C1031.88 483.776 1022.12 556.512 1020.85 561.923C1018.33 572.689 1016.64 583.737 1015.34 594.745C1014.07 605.474 1012.1 616.793 1013.8 627.579C1014.19 630.062 1014.8 632.505 1015.81 634.786C1016.89 637.25 1017.64 639.529 1018.51 642.108C1019.91 646.262 1022.45 649.908 1026.35 651.623C1034.34 655.139 1038.63 647.179 1040.8 640.249C1044.28 629.182 1046.51 617.935 1047.55 606.312C1048.71 593.453 1050.42 580.568 1049.94 567.62Z" fill="#89C5CC"/>
<rect x="965.32" y="615.212" width="124.326" height="105.988" rx="2" fill="white"/>
<rect x="951.658" y="626.859" width="13.6622" height="131.612" rx="2" fill="#C5CFD6"/>
<rect x="1019.97" y="626.859" width="13.6621" height="131.612" rx="2" fill="#C5CFD6"/>
<rect x="1089.65" y="626.859" width="13.6622" height="131.612" rx="2" fill="#C5CFD6"/>
<path fill-rule="evenodd" clip-rule="evenodd" d="M534.181 492.584C541.455 496.971 548.602 499.091 551.957 498.226C560.37 496.056 561.144 465.257 554.634 453.115C548.125 440.974 514.66 435.681 512.974 459.738C512.388 468.088 515.892 475.539 521.068 481.619L511.787 524.909H538.747L534.181 492.584Z" fill="#B28B67"/>
<path fill-rule="evenodd" clip-rule="evenodd" d="M521.897 454.089C537.454 454.201 548.279 453.544 554.473 451.841C554.191 446.564 548.71 440.6 534.253 440.6C518.169 440.6 509.54 449.981 509.54 460.834C509.54 470.749 515.918 482.825 520.773 483.316C522.031 483.041 523.105 481.524 524.174 479.435C522.174 478.461 520.773 476.167 520.773 473.199C520.773 470.347 523.288 467.578 526.39 467.578C527.522 467.578 528.575 467.947 529.457 468.553C531.495 465.268 534.049 462.815 537.623 463.082L535.377 456.337L521.897 455.213V454.089Z" fill="#191847"/>
<path fill-rule="evenodd" clip-rule="evenodd" d="M644.573 703.275C642.483 726.141 644.572 775.291 645.696 789.469C646.403 798.379 658.539 796.047 659.671 788.915C659.863 787.707 660.645 783.463 661.812 777.13C667.533 746.075 682.507 664.801 682.533 645.039C682.545 635.977 662.385 628.73 654.319 639.677C647.688 635.016 638.276 633.766 632.473 643.18C628.08 650.306 617.642 670.538 606.51 694.164C596.758 714.861 581.519 765.102 581.519 765.102L594.456 771.017C594.456 771.017 626.413 719.602 646.534 683.553C645.866 689.756 645.202 696.397 644.573 703.275Z" fill="#B28B67"/>
<path fill-rule="evenodd" clip-rule="evenodd" d="M582.444 746.502L626.847 641.241C637.484 624.118 667.308 644.725 663.68 654.657C655.445 677.204 613.56 750.199 611.107 756.916L582.444 746.502Z" fill="#1F28CF"/>
<path fill-rule="evenodd" clip-rule="evenodd" d="M683.657 653.257C683.657 683.093 670.588 753.225 670.579 759.794L638.921 758.726C638.921 758.726 647.222 667.263 645.922 666.643C643.973 665.713 566.001 677.442 542.616 678.328C508.895 679.605 494.945 658.903 493.813 619.617H559.132C559.132 619.617 642.913 629.624 669.261 633.538C680.54 635.213 683.657 645.038 683.657 653.257Z" fill="#2B44FF"/>
<path fill-rule="evenodd" clip-rule="evenodd" d="M582.882 761.172C581.96 760.449 580.609 760.604 579.952 761.574C578.607 763.557 576.596 766.736 576.118 768.657C575.383 771.608 574.955 777.513 574.955 777.513C578.375 778.367 636.431 792.852 636.431 792.852C636.431 792.852 640.802 785.522 635.797 783.602C630.791 781.681 627.503 780.32 627.503 780.32L602.006 760.366C601.562 760.018 600.919 760.106 600.585 760.56L597.562 764.662C597.562 764.662 592.227 765.701 589.239 764.956C587.344 764.483 584.622 762.535 582.882 761.172Z" fill="#E4E4E4"/>
<path fill-rule="evenodd" clip-rule="evenodd" d="M646.847 771.302C645.778 770.825 644.504 771.302 644.101 772.402C643.276 774.652 642.093 778.223 642.093 780.203C642.093 783.244 643.106 789.077 643.106 789.077C646.631 789.077 706.464 789.077 706.464 789.077C706.464 789.077 708.933 780.907 703.612 780.255C698.291 779.604 694.772 779.079 694.772 779.079L665.208 765.89C664.694 765.66 664.091 765.901 663.876 766.422L661.935 771.135C661.935 771.135 657.009 773.435 653.929 773.435C651.977 773.435 648.865 772.204 646.847 771.302Z" fill="#E4E4E4"/>
<rect x="643.217" y="789.077" width="59.5367" height="7.86885" rx="3.93443" fill="#2F3676"/>
<path d="M479.21 636.08C479.21 630.557 483.687 626.08 489.21 626.08H611.873C617.396 626.08 621.873 630.557 621.873 636.08V692.403H483.21C481.001 692.403 479.21 690.612 479.21 688.403V636.08Z" fill="#2F3676"/>
<path fill-rule="evenodd" clip-rule="evenodd" d="M610.64 626.08H614.151C619.048 626.08 623.226 629.627 624.019 634.461L648.833 785.705H636.83" fill="#2F3676"/>
<path fill-rule="evenodd" clip-rule="evenodd" d="M643.217 808.187C654.384 808.187 663.437 799.128 663.437 787.953C663.437 776.778 654.384 767.719 643.217 767.719C632.049 767.719 622.997 776.778 622.997 787.953C622.997 799.128 632.049 808.187 643.217 808.187Z" fill="#191847"/>
<path fill-rule="evenodd" clip-rule="evenodd" d="M579.187 720.506C579.187 767.689 540.964 805.939 493.813 805.939C446.663 805.939 408.44 767.689 408.44 720.506C408.44 673.322 446.663 635.073 493.813 635.073C540.964 635.073 579.187 673.322 579.187 720.506ZM563.46 720.506C563.46 758.998 532.278 790.201 493.813 790.201C455.348 790.201 424.167 758.998 424.167 720.506C424.167 682.014 455.348 650.81 493.813 650.81C532.278 650.81 563.46 682.014 563.46 720.506Z" fill="#191847"/>
<rect x="489.32" y="646.314" width="8.98666" height="148.384" fill="#191847"/>
<rect width="8.98982" height="148.332" rx="2" transform="matrix(0.706859 0.707355 -0.706859 0.707355 543.061 664.865)" fill="#191847"/>
<rect x="567.953" y="716.009" width="8.99297" height="148.28" rx="2" transform="rotate(90 567.953 716.009)" fill="#191847"/>
<rect width="8.98982" height="148.332" rx="2" transform="matrix(-0.706859 0.707355 -0.706859 -0.707355 549.416 769.788)" fill="#191847"/>
<path fill-rule="evenodd" clip-rule="evenodd" d="M650.499 567.541L606.147 573.595L614.104 593.48L650.092 579.202C665.604 580.734 673.105 580.365 672.595 578.096C672.164 576.183 670.516 575.606 668.997 575.074C667.814 574.659 666.71 574.273 666.322 573.304C665.436 571.091 670.479 566.505 675.449 562.359C680.418 558.213 677.082 557.45 674.985 557.511C667.533 559.26 659.371 562.603 650.499 567.541ZM434.724 676.562C438.015 669.879 466.819 583.868 466.819 583.868L491.417 583.961C491.417 583.961 450.959 675.072 449.226 679.369C446.975 684.952 450.798 693.063 453.391 698.563C453.792 699.414 454.164 700.202 454.479 700.909C450.882 702.52 449.153 700.573 447.331 698.52C445.273 696.201 443.096 693.748 437.97 696.134C435.99 697.056 434.116 698.146 432.285 699.211C425.96 702.89 420.15 706.27 412.247 701.389C410.994 700.616 409.621 697.703 412.938 695.426C421.204 689.755 433.114 679.829 434.724 676.562Z" fill="#997659"/>
<path fill-rule="evenodd" clip-rule="evenodd" d="M534.196 505.799L553.456 507.083C558.199 550.025 584.035 577.15 641.881 567.967L649.566 623.268C595.5 630.26 548.085 608.599 538.367 549.952C535.852 534.771 533.865 518.971 534.196 505.799Z" fill="#AFB9C5"/>
<path fill-rule="evenodd" clip-rule="evenodd" d="M438.098 665.424C451.47 594.226 479.693 539.144 522.768 500.178H524.616H524.679L524.694 500.196L553.875 506.884C553.875 541.961 561.673 568.17 569.171 593.368C572.408 604.249 575.59 614.942 578.063 626.08H499.254C498.144 638.839 497.462 651.954 497.107 665.424H438.098Z" fill="#C5CFD6"/>
<path fill-rule="evenodd" clip-rule="evenodd" d="M499.254 626.08C501.514 600.102 505.55 575.595 512.222 552.56C510.76 577.194 510.354 607.754 515.272 626.08H499.254Z" fill="black" fill-opacity="0.1"/>
<path fill-rule="evenodd" clip-rule="evenodd" d="M850.823 421.65C843.538 426.041 836.38 428.162 833.02 427.296C824.594 425.125 823.82 394.302 830.339 382.151C836.858 369.999 870.372 364.703 872.061 388.779C872.647 397.134 869.139 404.592 863.955 410.676L873.25 454H846.25L850.823 421.65Z" fill="#B28B67"/>
<path fill-rule="evenodd" clip-rule="evenodd" d="M849.473 391.438C847.137 387.96 844.895 385.308 841.979 383.767C830.109 383.955 828.719 381.827 828.719 374.655C830.636 373.283 837.401 370.973 844.976 370.323C848.841 369.217 853.419 369.425 857.829 371.27C863.273 372.815 867.883 376.141 869.919 382.369C877.286 395.083 871.695 408.317 864.16 412.838C862.154 410.461 860.403 408.158 858.842 405.954C860.096 404.728 860.875 403.017 860.875 401.125C860.875 397.397 857.853 394.375 854.125 394.375C853.851 394.375 853.581 394.391 853.315 394.423C853.147 399.084 852.457 414.853 850.644 420.33C848.506 426.788 836.031 428.374 831.68 428.374C827.922 428.374 828.05 424.815 828.142 422.265C828.155 421.897 828.167 421.551 828.167 421.239C828.167 420.588 829.015 420.589 829.972 420.591C831.216 420.594 832.644 420.596 832.644 419.17C832.644 417.615 830.496 416.422 828.573 415.355C827.373 414.689 826.261 414.072 825.814 413.446C824.404 411.472 823.929 408.81 826.057 408.81C827.22 408.81 828.815 409.48 830.735 410.287C833.633 411.505 837.27 413.033 841.271 413.033C847.881 413.033 849.453 391.705 849.473 391.438Z" fill="#191847"/>
<path fill-rule="evenodd" clip-rule="evenodd" d="M889 558L852.369 684.227L835.14 779H817.847L835.109 558H889Z" fill="#997659"/>
<path fill-rule="evenodd" clip-rule="evenodd" d="M905.462 558C902.906 623.574 903.914 659.34 904.486 665.298C905.058 671.256 908.306 711.156 930.436 781H912.45C883.142 713.997 872.911 674.096 869.55 665.298C866.188 656.5 856.261 620.734 841.767 558H905.462Z" fill="#B28B67"/>
<path fill-rule="evenodd" clip-rule="evenodd" d="M889.786 558C880.258 601.435 863.778 670.768 840.347 766H815.054C813.186 668.254 821.133 603.92 834.895 558H889.786Z" fill="#69A1AC"/>
<path fill-rule="evenodd" clip-rule="evenodd" d="M905.59 558C903.087 623.574 909.574 688.177 929.669 767.021H902.683C873.321 701.018 852.277 636.734 837.894 558H905.59Z" fill="#89C5CC"/>
<path fill-rule="evenodd" clip-rule="evenodd" d="M933 794L932.085 779.249C932.045 778.609 931.423 778.171 930.795 778.304C922.128 780.146 910.174 776 910.174 776C898.143 784.522 880.799 788.433 874.692 789.604C873.51 789.831 872.752 791.023 873.08 792.18L874.447 797H910.174H931.015L933 794Z" fill="#191847"/>
<path fill-rule="evenodd" clip-rule="evenodd" d="M839 794L838.085 779.249C838.045 778.609 837.423 778.171 836.795 778.304C828.128 780.146 816.174 776 816.174 776C804.143 784.522 786.799 788.433 780.692 789.604C779.51 789.831 778.752 791.023 779.08 792.18L780.447 797H816.174H837.015L839 794Z" fill="#191847"/>
<path fill-rule="evenodd" clip-rule="evenodd" d="M763.499 575.64L790.739 540.473L803.765 557.104L773.662 581.029C767.252 595.125 763.205 601.395 761.521 599.839C760.101 598.527 760.428 596.825 760.73 595.257C760.964 594.035 761.183 592.895 760.549 592.085C759.099 590.235 752.673 592.314 746.659 594.548C740.644 596.782 741.653 593.537 742.748 591.764C747.949 586.215 754.866 580.84 763.499 575.64ZM955.792 594.147C951.599 587.994 931.425 525.12 931.425 525.12L908.157 528.483C908.157 528.483 939.484 594.935 941.8 598.945C944.809 604.154 942.145 612.711 940.338 618.514C940.058 619.412 939.799 620.243 939.585 620.986C943.377 622.079 944.82 619.912 946.342 617.627C948.06 615.046 949.879 612.315 955.294 613.962C957.386 614.598 959.396 615.415 961.36 616.213C968.144 618.971 974.376 621.505 981.535 615.575C982.67 614.635 983.627 611.562 980.02 609.772C971.035 605.314 957.843 597.155 955.792 594.147Z" fill="#B28B67"/>
<path fill-rule="evenodd" clip-rule="evenodd" d="M851.56 436.904L841.695 436.608C830.922 480.297 807.247 521.946 770.669 561.554L807.221 595.038C841.78 541.104 860.273 487.87 851.56 436.904Z" fill="#191847"/>
<path fill-rule="evenodd" clip-rule="evenodd" d="M910.538 551.848L824.756 563.904C824.756 563.904 844.398 487.36 837.29 436.787L862.625 429.302C887.55 459.092 898.942 498.482 910.538 551.848Z" fill="#DDE3E9"/>
<path fill-rule="evenodd" clip-rule="evenodd" d="M954.687 583.066C930.458 478.734 863.194 429.222 863.194 429.222L863.176 429.243C863.172 429.237 863.167 429.232 863.163 429.226L861.474 429.464C858.457 429.994 852.291 431.137 852.291 431.137L848.546 449.853C852.138 482.613 855.436 582.96 855.436 582.96L911.586 575.068C912.127 579.614 912.562 584.241 912.876 588.942L954.687 583.066Z" fill="#2F3676"/>
<path fill-rule="evenodd" clip-rule="evenodd" d="M911.638 575.508C909.312 555.706 904.953 537.418 899.669 521.057C900.936 541.175 901.103 565.573 895.995 577.706L911.638 575.508Z" fill="black" fill-opacity="0.1"/>
<path fill-rule="evenodd" clip-rule="evenodd" d="M894.369 542.78L864.833 533.809L866.641 546.677L894.369 542.78Z" fill="white" fill-opacity="0.2"/>
</svg>
