<?xml version="1.0"?>
<svg xmlns="http://www.w3.org/2000/svg" height="512px" viewBox="0 -1 480 480" width="512px"><path d="m234.398438 348.199219 5.601562 5.601562 79.199219-80c22.402343-23.203125 22.402343-59.203125 0-82.402343-21.597657-21.597657-56.800781-23.199219-79.199219-2.398438-22.398438-20.800781-57.601562-20-79.199219 2.398438-22.402343 23.199218-22.402343 59.199218 0 82.402343zm-62.398438-145.601563c16-16 41.601562-16.796875 58.398438-.796875 0 0 0 0 .800781.796875l8.800781 8.800782 8.800781-8.800782c16-16 41.597657-16.796875 58.398438-.796875 0 0 0 0 .800781.796875 16 16.800782 16 43.203125 0 60l-68 68.800782-68-68.800782c-16-16.796875-16-43.199218 0-60zm0 0" fill="#81d371"/><path d="m404 309c-7.199219-4-16-4.800781-24-.800781l-136.800781 74.398437-86.398438-79.199218c-6.402343-5.597657-15.199219-8-24-4.800782l-62.402343 20h-70.398438v120h70.398438l120 37.601563c6.402343 1.601562 13.601562 1.601562 19.203124-2.398438l193.597657-112c7.199219-4 12-12 12-20.800781v-12c.800781-8-4-16-11.199219-20zm-388 25.597656h48v88h-48zm384 6.402344c0 3.199219-1.601562 5.597656-4 7.199219l-193.601562 112c-1.597657.800781-4 1.601562-6.398438.800781l-116-36v-92.800781l57.601562-19.199219c2.398438-.800781 5.597657 0 8 1.597656l82.398438 76-28 14.402344-60-37.601562-8.800781 13.601562 68 42.398438 188.800781-101.597657c4-2.402343 8.800781-.800781 11.199219 3.199219.800781 1.597656.800781 3.199219.800781 4zm0 0" fill="#81d371"/><path d="m32 350.597656h16v32h-16zm0 0" fill="#81d371"/><path d="m409.601562 38.597656-120-37.597656c-6.402343-1.601562-13.601562-1.601562-19.203124 2.398438l-193.597657 112c-7.199219 4-12 12-12 20.800781v12c0 13.601562 10.398438 24 24 24 4 0 8-.800781 11.199219-3.199219l136.800781-74.402344 86.398438 79.203125c6.402343 5.597657 15.199219 8 24 4.796875l61.601562-20.796875h71.199219v-119.203125zm-67.203124 125.601563c-2.398438.800781-5.597657 0-8-1.601563l-82.398438-76 28-15.199218 60 37.601562 8.800781-13.601562-68.800781-42.398438-188 101.597656c-4 2.402344-8.800781.800782-11.199219-3.199218-.800781-.800782-.800781-2.398438-.800781-3.199219v-12c0-3.199219 1.601562-5.601563 4-7.199219l193.601562-112c1.597657-.800781 4-1.601562 6.398438-.800781l116 36v92zm121.601562-21.601563h-48v-88h48zm0 0" fill="#81d371"/><path d="m432 94.597656h16v32h-16zm0 0" fill="#81d371"/><path d="m408 182.597656h-16v16h-16v16h16v16h16v-16h16v-16h-16zm0 0" fill="#81d371"/><path d="m88 230.597656v16h-16v16h16v16h16v-16h16v-16h-16v-16zm0 0" fill="#81d371"/><path d="m360 246.597656v16h-16v16h16v16h16v-16h16v-16h-16v-16zm0 0" fill="#81d371"/><path d="m240 286.597656c17.601562 0 32-14.398437 32-32h-16c0 8.800782-7.199219 16-16 16s-16-7.199218-16-16h-16c0 17.601563 14.398438 32 32 32zm0 0" fill="#81d371"/><path d="m208 222.597656h16v16h-16zm0 0" fill="#81d371"/><path d="m256 222.597656h16v16h-16zm0 0" fill="#81d371"/></svg>
