<?xml version="1.0"?>
<svg xmlns="http://www.w3.org/2000/svg" viewBox="0 0 512 512" width="512px" height="512px"><path d="m256 120c-5.519531 0-10 4.480469-10 10s4.480469 10 10 10 10-4.480469 10-10-4.480469-10-10-10zm0 0" fill="#6767cb"/><path d="m266 40.179688v-30.179688c0-5.523438-4.476562-10-10-10s-10 4.476562-10 10v30.179688c-122.195312 3.882812-228.203125 78.339843-243.941406 197.847656-1.363282 3.890625-2.058594 7.914062-2.058594 11.972656 0 5.523438 4.476562 10 10 10 .125 0 .246094-.015625.371094-.019531.15625.007812.308594.019531.460937.019531 5.144531 0 9.515625-3.945312 9.953125-9.164062.222656-2.675782.492188-5.285157.792969-7.800782 5.941406-13.203125 27.089844-23.035156 49.921875-23.035156 27.433594 0 51.5 14.019531 51.5 30 0 5.523438 4.476562 10 10 10 .226562 0 .453125-.019531.675781-.035156.109375-.003906.21875-.003906.328125-.015625.03125-.003907.066406-.007813.101563-.011719 4.945312-.488281 8.90625-4.636719 9.003906-9.753906.011719-.800782.035156-1.609375.058594-2.429688 2.164062-15.078125 25.535156-27.753906 51.332031-27.753906 27.433594 0 51.5 14.019531 51.5 30v102h-10c-5.523438 0-10 4.476562-10 10v80c0 5.515625-4.484375 10-10 10s-10-4.484375-10-10c0-16.542969-13.457031-30-30-30s-30 13.457031-30 30c0 38.597656 31.402344 70 70 70s70-31.402344 70-70v-80c0-5.523438-4.476562-10-10-10h-10v-102c0-15.980469 24.066406-30 51.5-30 25.816406 0 49.203125 12.695312 51.328125 27.714844.023437.816406.046875 1.636718.0625 2.460937.097656 5.140625 4.050781 9.296875 9.054687 9.765625.34375.039063.699219.058594 1.054688.058594 5.523438 0 10-4.476562 10-10 0-15.980469 24.066406-30 51.5-30 22.824219 0 43.960938 9.824219 49.921875 23.035156.300781 2.515625.570313 5.125.792969 7.800782.4375 5.21875 4.808594 9.164062 9.953125 9.164062.152343 0 .308593-.011719.460937-.019531.125.007812.246094.019531.371094.019531 5.523438 0 10-4.476562 10-10 0-4.066406-.699219-8.09375-2.0625-11.976562-15.71875-119.363282-121.578125-193.957032-243.9375-197.84375zm-140.84375 176.828124c-13.113281-10.417968-32.300781-17.007812-53.65625-17.007812-15.96875 0-30.980469 3.714844-43.089844 10.09375 21.152344-70.769531 81.128906-123.308594 160.363282-142.316406-39.757813 36.089844-58.078126 95.824218-63.617188 149.230468zm140.84375 224.992188c0 27.570312-22.429688 50-50 50s-50-22.429688-50-50c0-5.515625 4.484375-10 10-10s10 4.484375 10 10c0 16.542969 13.457031 30 30 30s30-13.457031 30-30v-70h20zm98.175781-229.882812c-13.03125-7.8125-29.609375-12.117188-46.675781-12.117188-20.214844 0-38.484375 5.90625-51.5 15.367188v-45.367188c0-5.523438-4.476562-10-10-10s-10 4.476562-10 10v45.367188c-13.015625-9.460938-31.285156-15.367188-51.5-15.367188-17.066406 0-33.644531 4.304688-46.675781 12.117188-.71875.429687-1.414063.875-2.101563 1.324218 10.390625-84.878906 49.667969-145.613281 100.277344-152.742187v29.300781c0 5.523438 4.476562 10 10 10s10-4.476562 10-10v-29.300781c50.609375 7.121093 89.890625 67.863281 100.277344 152.742187-.6875-.449218-1.382813-.894531-2.101563-1.324218zm76.324219-12.117188c-21.355469 0-40.539062 6.589844-53.652344 17.003906-5.523437-53.273437-23.808594-113.089844-63.621094-149.226562 79.230469 19.007812 139.210938 71.546875 160.363282 142.316406-12.113282-6.378906-27.121094-10.09375-43.089844-10.09375zm0 0" fill="#6767cb"/></svg>
