<?xml version="1.0"?>
<svg xmlns="http://www.w3.org/2000/svg" height="512px" viewBox="0 0 478.62274 478" width="512px"><path d="m404.15625 169.425781 35.917969-31.933593.136719-.113282c28.878906-26.753906 42.78125-65.980468 37.199218-104.953125l-1.304687-9.253906c-1.566407-10.519531-9.824219-18.78125-20.34375-20.351563l-9.183594-1.296874c-39.050781-5.59375-78.355469 8.367187-105.136719 37.335937l-31.933594 35.921875-17.257812-9.929688c-45.433594-26.058593-96.910156-39.730468-149.285156-39.65625l-14.851563.054688c-14.238281.066406-27.375 7.679688-34.511719 20l-2.796874 4.859375c-2.203126 3.824219-.894532 8.710937 2.925781 10.917969l152.417969 88-119.105469 134.945312-9.121094 11.726563c-24.734375-13.550781-52.480469-20.667969-80.6875-20.695313l-12.046875-.054687c-8.527344.097656-16.386719 4.648437-20.710938 12l-3.402343 5.824219c-1.0625002 1.835937-1.351563 4.023437-.800781 6.074218.546874 2.050782 1.890624 3.800782 3.730468 4.859375l77.597656 44.800781c-2.199218 4.253907-4.285156 8.519532-6.183593 12.902344-4.171875 9.882813-3.148438 21.195313 2.730469 30.167969 5.878906 8.972656 15.839843 14.429687 26.566406 14.554687 4.402344-.007812 8.757812-.914062 12.800781-2.65625.203125-.082031.40625-.175781.597656-.28125 4-1.71875 8.121094-3.742187 12.304688-5.902343l44.800781 77.597656c1.054688 1.847656 2.800781 3.203125 4.855469 3.757813 2.054687.558593 4.246093.273437 6.089843-.789063l5.878907-3.398437h.046875c7.347656-4.363282 11.878906-12.257813 11.9375-20.800782l-.054688-11.898437c-.035156-28.230469-7.171875-56-20.753906-80.75l11.558594-8.992188 135.050781-119.246093 88.046875 152.4375c2.210938 3.820312 7.097656 5.132812 10.921875 2.929687l4.855469-2.792969c12.324218-7.140625 19.9375-20.28125 20-34.527344l.046875-14.832031c.214843-52.390625-13.464844-103.90625-39.640625-149.289062zm-275.984375-128.175781 14.847656-.054688c49.558594-.113281 98.269531 12.828126 141.238281 37.519532l14.59375 8.394531-42.03125 49.664063-148.074218-85.515626c4.503906-6.246093 11.722656-9.964843 19.425781-10.007812zm-102.945313 249.699219 12 .054687c24.671876.003906 48.972657 5.996094 70.816407 17.464844l-5.023438 6.472656c-2.90625 3.671875-5.664062 7.550782-8.351562 11.535156-.800781 1.152344-1.519531 2.328126-2.28125 3.503907-.984375 1.527343-2.015625 3-2.96875 4.566406l-70.398438-40.617187c1.523438-1.867188 3.796875-2.960938 6.207031-2.980469zm162.703126 150.824219.058593 11.820312c0 2.449219-1.101562 4.765625-2.992187 6.3125l-40.609375-70.398438c1.550781-.945312 3.007812-1.953124 4.519531-2.929687 1.191406-.796875 2.402344-1.527344 3.570312-2.320313 3.878907-2.605468 7.648438-5.285156 11.199219-8.078124l.238281-.175782 6.5625-5.105468c11.472657 21.863281 17.460938 46.183593 17.453126 70.875zm-3.367188-102.074219-16.464844 12.800781c-.039062 0-.09375 0-.132812.070312l-13.953125 10.882813c-7.710938 6.042969-15.890625 11.46875-24.464844 16.214844-5.921875 3.355469-12.019531 6.394531-18.261719 9.105469-.179687.070312-.347656.148437-.523437.238281-6.019531 2.324219-12.847657.820312-17.335938-3.8125-4.492187-4.636719-5.777343-11.507813-3.261719-17.453125 2.726563-6.289063 5.78125-12.429688 9.160157-18.398438 4.753906-8.613281 10.1875-16.832031 16.253906-24.574218l10.800781-13.859376s0-.085937.0625-.125l12.921875-16.640624 213.921875-244.535157c19.664063-21.214843 47.269532-33.289062 76.199219-33.320312 4.953125 0 9.898437.355469 14.800781 1.070312l9.183594 1.296875c3.507812.519532 6.273438 3.265625 6.804688 6.777344l1.304687 9.246094c4.820313 33.746094-7.21875 67.710937-32.214844 90.886718zm253.121094 11.074219c-.042969 7.695312-3.765625 14.910156-10.015625 19.40625l-85.503907-148.113282 49.679688-41.992187 8.40625 14.609375c24.765625 42.953125 37.699219 91.707031 37.480469 141.289062zm0 0" fill="#cd8675"/><path d="m386.410156 59.644531c9.433594-5.582031 21.453125-4.0625 29.199219 3.691407 7.746094 7.757812 9.257813 19.773437 3.664063 29.203124-2.253907 3.800782-1 8.707032 2.796874 10.964844 3.800782 2.253906 8.710938 1.003906 10.964844-2.796875 9.320313-15.710937 6.8125-35.742187-6.097656-48.671875-12.910156-12.925781-32.9375-15.464844-48.664062-6.167968-2.492188 1.4375-4.019532 4.105468-4 6.980468.015624 2.878906 1.578124 5.523438 4.089843 6.929688s5.585938 1.355468 8.046875-.132813zm0 0" fill="#cd8675"/></svg>
